<svg width="610" height="212" viewBox="0 0 610 212" fill="none" xmlns="http://www.w3.org/2000/svg">
<rect x="130.5" y="0.931641" width="162" height="54" fill="url(#paint0_linear_7790_108873)"/>
<path d="M151.364 34.0576C150.536 34.0576 149.792 33.9136 149.132 33.6256C148.484 33.3256 147.974 32.9176 147.602 32.4016C147.23 31.8736 147.038 31.2676 147.026 30.5836H148.772C148.832 31.1716 149.072 31.6696 149.492 32.0776C149.924 32.4736 150.548 32.6716 151.364 32.6716C152.144 32.6716 152.756 32.4796 153.2 32.0956C153.656 31.6996 153.884 31.1956 153.884 30.5836C153.884 30.1036 153.752 29.7136 153.488 29.4136C153.224 29.1136 152.894 28.8856 152.498 28.7296C152.102 28.5736 151.568 28.4056 150.896 28.2256C150.068 28.0096 149.402 27.7936 148.898 27.5776C148.406 27.3616 147.98 27.0256 147.62 26.5696C147.272 26.1016 147.098 25.4776 147.098 24.6976C147.098 24.0136 147.272 23.4076 147.62 22.8796C147.968 22.3516 148.454 21.9436 149.078 21.6556C149.714 21.3676 150.44 21.2236 151.256 21.2236C152.432 21.2236 153.392 21.5176 154.136 22.1056C154.892 22.6936 155.318 23.4736 155.414 24.4456H153.614C153.554 23.9656 153.302 23.5456 152.858 23.1856C152.414 22.8136 151.826 22.6276 151.094 22.6276C150.41 22.6276 149.852 22.8076 149.42 23.1676C148.988 23.5156 148.772 24.0076 148.772 24.6436C148.772 25.0996 148.898 25.4716 149.15 25.7596C149.414 26.0476 149.732 26.2696 150.104 26.4256C150.488 26.5696 151.022 26.7376 151.706 26.9296C152.534 27.1576 153.2 27.3856 153.704 27.6136C154.208 27.8296 154.64 28.1716 155 28.6396C155.36 29.0956 155.54 29.7196 155.54 30.5116C155.54 31.1236 155.378 31.6996 155.054 32.2396C154.73 32.7796 154.25 33.2176 153.614 33.5536C152.978 33.8896 152.228 34.0576 151.364 34.0576ZM159.948 25.4176V31.2316C159.948 31.7116 160.05 32.0536 160.254 32.2576C160.458 32.4496 160.812 32.5456 161.316 32.5456H162.522V33.9316H161.046C160.134 33.9316 159.45 33.7216 158.994 33.3016C158.538 32.8816 158.31 32.1916 158.31 31.2316V25.4176H157.032V24.0676H158.31V21.5836H159.948V24.0676H162.522V25.4176H159.948ZM166.145 25.6696C166.433 25.1056 166.841 24.6676 167.369 24.3556C167.909 24.0436 168.563 23.8876 169.331 23.8876V25.5796H168.899C167.063 25.5796 166.145 26.5756 166.145 28.5676V33.9316H164.507V24.0676H166.145V25.6696ZM175.524 34.0936C174.6 34.0936 173.76 33.8836 173.004 33.4636C172.26 33.0436 171.672 32.4496 171.24 31.6816C170.82 30.9016 170.61 30.0016 170.61 28.9816C170.61 27.9736 170.826 27.0856 171.258 26.3176C171.702 25.5376 172.302 24.9436 173.058 24.5356C173.814 24.1156 174.66 23.9056 175.596 23.9056C176.532 23.9056 177.378 24.1156 178.134 24.5356C178.89 24.9436 179.484 25.5316 179.916 26.2996C180.36 27.0676 180.582 27.9616 180.582 28.9816C180.582 30.0016 180.354 30.9016 179.898 31.6816C179.454 32.4496 178.848 33.0436 178.08 33.4636C177.312 33.8836 176.46 34.0936 175.524 34.0936ZM175.524 32.6536C176.112 32.6536 176.664 32.5156 177.18 32.2396C177.696 31.9636 178.11 31.5496 178.422 30.9976C178.746 30.4456 178.908 29.7736 178.908 28.9816C178.908 28.1896 178.752 27.5176 178.44 26.9656C178.128 26.4136 177.72 26.0056 177.216 25.7416C176.712 25.4656 176.166 25.3276 175.578 25.3276C174.978 25.3276 174.426 25.4656 173.922 25.7416C173.43 26.0056 173.034 26.4136 172.734 26.9656C172.434 27.5176 172.284 28.1896 172.284 28.9816C172.284 29.7856 172.428 30.4636 172.716 31.0156C173.016 31.5676 173.412 31.9816 173.904 32.2576C174.396 32.5216 174.936 32.6536 175.524 32.6536ZM187.542 23.8876C188.742 23.8876 189.714 24.2536 190.458 24.9856C191.202 25.7056 191.574 26.7496 191.574 28.1176V33.9316H189.954V28.3516C189.954 27.3676 189.708 26.6176 189.216 26.1016C188.724 25.5736 188.052 25.3096 187.2 25.3096C186.336 25.3096 185.646 25.5796 185.13 26.1196C184.626 26.6596 184.374 27.4456 184.374 28.4776V33.9316H182.736V24.0676H184.374V25.4716C184.698 24.9676 185.136 24.5776 185.688 24.3016C186.252 24.0256 186.87 23.8876 187.542 23.8876ZM193.637 28.9636C193.637 27.9556 193.841 27.0736 194.249 26.3176C194.657 25.5496 195.215 24.9556 195.923 24.5356C196.643 24.1156 197.441 23.9056 198.317 23.9056C199.181 23.9056 199.931 24.0916 200.567 24.4636C201.203 24.8356 201.677 25.3036 201.989 25.8676V24.0676H203.645V33.9316H201.989V32.0956C201.665 32.6716 201.179 33.1516 200.531 33.5356C199.895 33.9076 199.151 34.0936 198.299 34.0936C197.423 34.0936 196.631 33.8776 195.923 33.4456C195.215 33.0136 194.657 32.4076 194.249 31.6276C193.841 30.8476 193.637 29.9596 193.637 28.9636ZM201.989 28.9816C201.989 28.2376 201.839 27.5896 201.539 27.0376C201.239 26.4856 200.831 26.0656 200.315 25.7776C199.811 25.4776 199.253 25.3276 198.641 25.3276C198.029 25.3276 197.471 25.4716 196.967 25.7596C196.463 26.0476 196.061 26.4676 195.761 27.0196C195.461 27.5716 195.311 28.2196 195.311 28.9636C195.311 29.7196 195.461 30.3796 195.761 30.9436C196.061 31.4956 196.463 31.9216 196.967 32.2216C197.471 32.5096 198.029 32.6536 198.641 32.6536C199.253 32.6536 199.811 32.5096 200.315 32.2216C200.831 31.9216 201.239 31.4956 201.539 30.9436C201.839 30.3796 201.989 29.7256 201.989 28.9816ZM215.28 23.9056C216.132 23.9056 216.876 24.0916 217.512 24.4636C218.16 24.8356 218.64 25.3036 218.952 25.8676V24.0676H220.608V34.1476C220.608 35.0476 220.416 35.8456 220.032 36.5416C219.648 37.2496 219.096 37.8016 218.376 38.1976C217.668 38.5936 216.84 38.7916 215.892 38.7916C214.596 38.7916 213.516 38.4856 212.652 37.8736C211.788 37.2616 211.278 36.4276 211.122 35.3716H212.742C212.922 35.9716 213.294 36.4516 213.858 36.8116C214.422 37.1836 215.1 37.3696 215.892 37.3696C216.792 37.3696 217.524 37.0876 218.088 36.5236C218.664 35.9596 218.952 35.1676 218.952 34.1476V32.0776C218.628 32.6536 218.148 33.1336 217.512 33.5176C216.876 33.9016 216.132 34.0936 215.28 34.0936C214.404 34.0936 213.606 33.8776 212.886 33.4456C212.178 33.0136 211.62 32.4076 211.212 31.6276C210.804 30.8476 210.6 29.9596 210.6 28.9636C210.6 27.9556 210.804 27.0736 211.212 26.3176C211.62 25.5496 212.178 24.9556 212.886 24.5356C213.606 24.1156 214.404 23.9056 215.28 23.9056ZM218.952 28.9816C218.952 28.2376 218.802 27.5896 218.502 27.0376C218.202 26.4856 217.794 26.0656 217.278 25.7776C216.774 25.4776 216.216 25.3276 215.604 25.3276C214.992 25.3276 214.434 25.4716 213.93 25.7596C213.426 26.0476 213.024 26.4676 212.724 27.0196C212.424 27.5716 212.274 28.2196 212.274 28.9636C212.274 29.7196 212.424 30.3796 212.724 30.9436C213.024 31.4956 213.426 31.9216 213.93 32.2216C214.434 32.5096 214.992 32.6536 215.604 32.6536C216.216 32.6536 216.774 32.5096 217.278 32.2216C217.794 31.9216 218.202 31.4956 218.502 30.9436C218.802 30.3796 218.952 29.7256 218.952 28.9816ZM226.346 26.7316L225.068 27.2356V33.9316H223.43V27.8656L222.152 28.3696V27.0736L223.43 26.5876V20.6116H225.068V25.9396L226.346 25.4536V26.7316ZM232.196 34.0936C231.272 34.0936 230.432 33.8836 229.676 33.4636C228.932 33.0436 228.344 32.4496 227.912 31.6816C227.492 30.9016 227.282 30.0016 227.282 28.9816C227.282 27.9736 227.498 27.0856 227.93 26.3176C228.374 25.5376 228.974 24.9436 229.73 24.5356C230.486 24.1156 231.332 23.9056 232.268 23.9056C233.204 23.9056 234.05 24.1156 234.806 24.5356C235.562 24.9436 236.156 25.5316 236.588 26.2996C237.032 27.0676 237.254 27.9616 237.254 28.9816C237.254 30.0016 237.026 30.9016 236.57 31.6816C236.126 32.4496 235.52 33.0436 234.752 33.4636C233.984 33.8836 233.132 34.0936 232.196 34.0936ZM232.196 32.6536C232.784 32.6536 233.336 32.5156 233.852 32.2396C234.368 31.9636 234.782 31.5496 235.094 30.9976C235.418 30.4456 235.58 29.7736 235.58 28.9816C235.58 28.1896 235.424 27.5176 235.112 26.9656C234.8 26.4136 234.392 26.0056 233.888 25.7416C233.384 25.4656 232.838 25.3276 232.25 25.3276C231.65 25.3276 231.098 25.4656 230.594 25.7416C230.102 26.0056 229.706 26.4136 229.406 26.9656C229.106 27.5176 228.956 28.1896 228.956 28.9816C228.956 29.7856 229.1 30.4636 229.388 31.0156C229.688 31.5676 230.084 31.9816 230.576 32.2576C231.068 32.5216 231.608 32.6536 232.196 32.6536ZM234.032 21.1516L230.198 23.2036V21.9796L234.032 19.7296V21.1516ZM252.547 24.0676L249.469 33.9316H247.777L245.401 26.1016L243.025 33.9316H241.333L238.237 24.0676H239.911L242.179 32.3476L244.627 24.0676H246.301L248.695 32.3656L250.927 24.0676H252.547ZM258.979 23.8876C260.179 23.8876 261.151 24.2536 261.895 24.9856C262.639 25.7056 263.011 26.7496 263.011 28.1176V33.9316H261.391V28.3516C261.391 27.3676 261.145 26.6176 260.653 26.1016C260.161 25.5736 259.489 25.3096 258.637 25.3096C257.773 25.3096 257.083 25.5796 256.567 26.1196C256.063 26.6596 255.811 27.4456 255.811 28.4776V33.9316H254.173V24.0676H255.811V25.4716C256.135 24.9676 256.573 24.5776 257.125 24.3016C257.689 24.0256 258.307 23.8876 258.979 23.8876ZM265.075 28.9636C265.075 27.9556 265.279 27.0736 265.687 26.3176C266.095 25.5496 266.653 24.9556 267.361 24.5356C268.081 24.1156 268.879 23.9056 269.755 23.9056C270.619 23.9056 271.369 24.0916 272.005 24.4636C272.641 24.8356 273.115 25.3036 273.427 25.8676V24.0676H275.083V33.9316H273.427V32.0956C273.103 32.6716 272.617 33.1516 271.969 33.5356C271.333 33.9076 270.589 34.0936 269.737 34.0936C268.861 34.0936 268.069 33.8776 267.361 33.4456C266.653 33.0136 266.095 32.4076 265.687 31.6276C265.279 30.8476 265.075 29.9596 265.075 28.9636ZM273.427 28.9816C273.427 28.2376 273.277 27.5896 272.977 27.0376C272.677 26.4856 272.269 26.0656 271.753 25.7776C271.249 25.4776 270.691 25.3276 270.079 25.3276C269.467 25.3276 268.909 25.4716 268.405 25.7596C267.901 26.0476 267.499 26.4676 267.199 27.0196C266.899 27.5716 266.749 28.2196 266.749 28.9636C266.749 29.7196 266.899 30.3796 267.199 30.9436C267.499 31.4956 267.901 31.9216 268.405 32.2216C268.909 32.5096 269.467 32.6536 270.079 32.6536C270.691 32.6536 271.249 32.5096 271.753 32.2216C272.269 31.9216 272.677 31.4956 272.977 30.9436C273.277 30.3796 273.427 29.7256 273.427 28.9816Z" fill="#EFF0F3"/>
<rect x="130.5" y="0.931641" width="162" height="54" stroke="url(#paint1_linear_7790_108873)"/>
<path d="M319.664 27.931H338.331M338.331 27.931L328.997 18.5977M338.331 27.931L328.997 37.2643" stroke="#EFF0F3" stroke-width="2" stroke-linecap="round" stroke-linejoin="round"/>
<rect x="365.5" y="0.931641" width="97" height="54" rx="27" fill="#010104"/>
<path d="M395.364 34.0576C394.536 34.0576 393.792 33.9136 393.132 33.6256C392.484 33.3256 391.974 32.9176 391.602 32.4016C391.23 31.8736 391.038 31.2676 391.026 30.5836H392.772C392.832 31.1716 393.072 31.6696 393.492 32.0776C393.924 32.4736 394.548 32.6716 395.364 32.6716C396.144 32.6716 396.756 32.4796 397.2 32.0956C397.656 31.6996 397.884 31.1956 397.884 30.5836C397.884 30.1036 397.752 29.7136 397.488 29.4136C397.224 29.1136 396.894 28.8856 396.498 28.7296C396.102 28.5736 395.568 28.4056 394.896 28.2256C394.068 28.0096 393.402 27.7936 392.898 27.5776C392.406 27.3616 391.98 27.0256 391.62 26.5696C391.272 26.1016 391.098 25.4776 391.098 24.6976C391.098 24.0136 391.272 23.4076 391.62 22.8796C391.968 22.3516 392.454 21.9436 393.078 21.6556C393.714 21.3676 394.44 21.2236 395.256 21.2236C396.432 21.2236 397.392 21.5176 398.136 22.1056C398.892 22.6936 399.318 23.4736 399.414 24.4456H397.614C397.554 23.9656 397.302 23.5456 396.858 23.1856C396.414 22.8136 395.826 22.6276 395.094 22.6276C394.41 22.6276 393.852 22.8076 393.42 23.1676C392.988 23.5156 392.772 24.0076 392.772 24.6436C392.772 25.0996 392.898 25.4716 393.15 25.7596C393.414 26.0476 393.732 26.2696 394.104 26.4256C394.488 26.5696 395.022 26.7376 395.706 26.9296C396.534 27.1576 397.2 27.3856 397.704 27.6136C398.208 27.8296 398.64 28.1716 399 28.6396C399.36 29.0956 399.54 29.7196 399.54 30.5116C399.54 31.1236 399.378 31.6996 399.054 32.2396C398.73 32.7796 398.25 33.2176 397.614 33.5536C396.978 33.8896 396.228 34.0576 395.364 34.0576ZM407.458 33.9316L403.588 29.5756V33.9316H401.95V20.6116H403.588V28.4416L407.386 24.0676H409.672L405.028 28.9816L409.69 33.9316H407.458ZM412.852 20.6116V33.9316H411.214V20.6116H412.852ZM424.644 28.6216C424.644 28.9336 424.626 29.2636 424.59 29.6116H416.706C416.766 30.5836 417.096 31.3456 417.696 31.8976C418.308 32.4376 419.046 32.7076 419.91 32.7076C420.618 32.7076 421.206 32.5456 421.674 32.2216C422.154 31.8856 422.49 31.4416 422.682 30.8896H424.446C424.182 31.8376 423.654 32.6116 422.862 33.2116C422.07 33.7996 421.086 34.0936 419.91 34.0936C418.974 34.0936 418.134 33.8836 417.39 33.4636C416.658 33.0436 416.082 32.4496 415.662 31.6816C415.242 30.9016 415.032 30.0016 415.032 28.9816C415.032 27.9616 415.236 27.0676 415.644 26.2996C416.052 25.5316 416.622 24.9436 417.354 24.5356C418.098 24.1156 418.95 23.9056 419.91 23.9056C420.846 23.9056 421.674 24.1096 422.394 24.5176C423.114 24.9256 423.666 25.4896 424.05 26.2096C424.446 26.9176 424.644 27.7216 424.644 28.6216ZM422.952 28.2796C422.952 27.6556 422.814 27.1216 422.538 26.6776C422.262 26.2216 421.884 25.8796 421.404 25.6516C420.936 25.4116 420.414 25.2916 419.838 25.2916C419.01 25.2916 418.302 25.5556 417.714 26.0836C417.138 26.6116 416.808 27.3436 416.724 28.2796H422.952ZM428.444 25.8856C428.768 25.3216 429.248 24.8536 429.884 24.4816C430.532 24.0976 431.282 23.9056 432.134 23.9056C433.01 23.9056 433.802 24.1156 434.51 24.5356C435.23 24.9556 435.794 25.5496 436.202 26.3176C436.61 27.0736 436.814 27.9556 436.814 28.9636C436.814 29.9596 436.61 30.8476 436.202 31.6276C435.794 32.4076 435.23 33.0136 434.51 33.4456C433.802 33.8776 433.01 34.0936 432.134 34.0936C431.294 34.0936 430.55 33.9076 429.902 33.5356C429.266 33.1516 428.78 32.6776 428.444 32.1136V38.6116H426.806V24.0676H428.444V25.8856ZM435.14 28.9636C435.14 28.2196 434.99 27.5716 434.69 27.0196C434.39 26.4676 433.982 26.0476 433.466 25.7596C432.962 25.4716 432.404 25.3276 431.792 25.3276C431.192 25.3276 430.634 25.4776 430.118 25.7776C429.614 26.0656 429.206 26.4916 428.894 27.0556C428.594 27.6076 428.444 28.2496 428.444 28.9816C428.444 29.7256 428.594 30.3796 428.894 30.9436C429.206 31.4956 429.614 31.9216 430.118 32.2216C430.634 32.5096 431.192 32.6536 431.792 32.6536C432.404 32.6536 432.962 32.5096 433.466 32.2216C433.982 31.9216 434.39 31.4956 434.69 30.9436C434.99 30.3796 435.14 29.7196 435.14 28.9636Z" fill="#EFF0F3"/>
<rect x="365.5" y="0.931641" width="97" height="54" rx="27" stroke="#EFF0F3"/>
<path d="M496.336 31.9323L503.003 38.599M503.003 38.599L509.669 31.9323M503.003 38.599V22.599C503.003 21.1845 502.441 19.8279 501.441 18.8277C500.44 17.8275 499.084 17.2656 497.669 17.2656H488.336" stroke="#EFF0F3" stroke-width="2" stroke-linecap="round" stroke-linejoin="round"/>
<rect x="131.93" y="128" width="143" height="54" fill="#010104"/>
<path d="M178.702 159.578H184.822V161H176.758V159.704L182.842 149.876H176.83V148.454H184.786V149.75L178.702 159.578ZM186.442 156.032C186.442 155.024 186.646 154.142 187.054 153.386C187.462 152.618 188.02 152.024 188.728 151.604C189.448 151.184 190.246 150.974 191.122 150.974C191.986 150.974 192.736 151.16 193.372 151.532C194.008 151.904 194.482 152.372 194.794 152.936V151.136H196.45V161H194.794V159.164C194.47 159.74 193.984 160.22 193.336 160.604C192.7 160.976 191.956 161.162 191.104 161.162C190.228 161.162 189.436 160.946 188.728 160.514C188.02 160.082 187.462 159.476 187.054 158.696C186.646 157.916 186.442 157.028 186.442 156.032ZM194.794 156.05C194.794 155.306 194.644 154.658 194.344 154.106C194.044 153.554 193.636 153.134 193.12 152.846C192.616 152.546 192.058 152.396 191.446 152.396C190.834 152.396 190.276 152.54 189.772 152.828C189.268 153.116 188.866 153.536 188.566 154.088C188.266 154.64 188.116 155.288 188.116 156.032C188.116 156.788 188.266 157.448 188.566 158.012C188.866 158.564 189.268 158.99 189.772 159.29C190.276 159.578 190.834 159.722 191.446 159.722C192.058 159.722 192.616 159.578 193.12 159.29C193.636 158.99 194.044 158.564 194.344 158.012C194.644 157.448 194.794 156.794 194.794 156.05ZM204.726 161L200.856 156.644V161H199.218V147.68H200.856V155.51L204.654 151.136H206.94L202.296 156.05L206.958 161H204.726ZM217.23 151.136V161H215.592V159.542C215.28 160.046 214.842 160.442 214.278 160.73C213.726 161.006 213.114 161.144 212.442 161.144C211.674 161.144 210.984 160.988 210.372 160.676C209.76 160.352 209.274 159.872 208.914 159.236C208.566 158.6 208.392 157.826 208.392 156.914V151.136H210.012V156.698C210.012 157.67 210.258 158.42 210.75 158.948C211.242 159.464 211.914 159.722 212.766 159.722C213.642 159.722 214.332 159.452 214.836 158.912C215.34 158.372 215.592 157.586 215.592 156.554V151.136H217.23ZM221.633 152.954C221.957 152.39 222.437 151.922 223.073 151.55C223.721 151.166 224.471 150.974 225.323 150.974C226.199 150.974 226.991 151.184 227.699 151.604C228.419 152.024 228.983 152.618 229.391 153.386C229.799 154.142 230.003 155.024 230.003 156.032C230.003 157.028 229.799 157.916 229.391 158.696C228.983 159.476 228.419 160.082 227.699 160.514C226.991 160.946 226.199 161.162 225.323 161.162C224.483 161.162 223.739 160.976 223.091 160.604C222.455 160.22 221.969 159.746 221.633 159.182V165.68H219.995V151.136H221.633V152.954ZM228.329 156.032C228.329 155.288 228.179 154.64 227.879 154.088C227.579 153.536 227.171 153.116 226.655 152.828C226.151 152.54 225.593 152.396 224.981 152.396C224.381 152.396 223.823 152.546 223.307 152.846C222.803 153.134 222.395 153.56 222.083 154.124C221.783 154.676 221.633 155.318 221.633 156.05C221.633 156.794 221.783 157.448 222.083 158.012C222.395 158.564 222.803 158.99 223.307 159.29C223.823 159.578 224.381 159.722 224.981 159.722C225.593 159.722 226.151 159.578 226.655 159.29C227.171 158.99 227.579 158.564 227.879 158.012C228.179 157.448 228.329 156.788 228.329 156.032Z" fill="#EFF0F3"/>
<rect x="131.93" y="128" width="143" height="54" stroke="#EFF0F3" stroke-dasharray="2 2"/>
<path d="M320.76 154.999H302.094M302.094 154.999L311.427 164.333M302.094 154.999L311.427 145.666" stroke="#EFF0F3" stroke-width="2" stroke-linecap="round" stroke-linejoin="round"/>
<rect x="404" y="99.1387" width="79" height="79" rx="3.5" transform="rotate(45 404 99.1387)" fill="url(#paint2_linear_7790_108873)"/>
<path d="M374.292 148.454C375.66 148.454 376.842 148.712 377.838 149.228C378.846 149.732 379.614 150.458 380.142 151.406C380.682 152.354 380.952 153.47 380.952 154.754C380.952 156.038 380.682 157.154 380.142 158.102C379.614 159.038 378.846 159.758 377.838 160.262C376.842 160.754 375.66 161 374.292 161H370.386V148.454H374.292ZM374.292 159.65C375.912 159.65 377.148 159.224 378 158.372C378.852 157.508 379.278 156.302 379.278 154.754C379.278 153.194 378.846 151.976 377.982 151.1C377.13 150.224 375.9 149.786 374.292 149.786H372.024V159.65H374.292ZM392.113 155.69C392.113 156.002 392.095 156.332 392.059 156.68H384.175C384.235 157.652 384.565 158.414 385.165 158.966C385.777 159.506 386.515 159.776 387.379 159.776C388.087 159.776 388.675 159.614 389.143 159.29C389.623 158.954 389.959 158.51 390.151 157.958H391.915C391.651 158.906 391.123 159.68 390.331 160.28C389.539 160.868 388.555 161.162 387.379 161.162C386.443 161.162 385.603 160.952 384.859 160.532C384.127 160.112 383.551 159.518 383.131 158.75C382.711 157.97 382.501 157.07 382.501 156.05C382.501 155.03 382.705 154.136 383.113 153.368C383.521 152.6 384.091 152.012 384.823 151.604C385.567 151.184 386.419 150.974 387.379 150.974C388.315 150.974 389.143 151.178 389.863 151.586C390.583 151.994 391.135 152.558 391.519 153.278C391.915 153.986 392.113 154.79 392.113 155.69ZM390.421 155.348C390.421 154.724 390.283 154.19 390.007 153.746C389.731 153.29 389.353 152.948 388.873 152.72C388.405 152.48 387.883 152.36 387.307 152.36C386.479 152.36 385.771 152.624 385.183 153.152C384.607 153.68 384.277 154.412 384.193 155.348H390.421ZM393.663 156.05C393.663 155.03 393.867 154.142 394.275 153.386C394.683 152.618 395.247 152.024 395.967 151.604C396.699 151.184 397.533 150.974 398.469 150.974C399.681 150.974 400.677 151.268 401.457 151.856C402.249 152.444 402.771 153.26 403.023 154.304H401.259C401.091 153.704 400.761 153.23 400.269 152.882C399.789 152.534 399.189 152.36 398.469 152.36C397.533 152.36 396.777 152.684 396.201 153.332C395.625 153.968 395.337 154.874 395.337 156.05C395.337 157.238 395.625 158.156 396.201 158.804C396.777 159.452 397.533 159.776 398.469 159.776C399.189 159.776 399.789 159.608 400.269 159.272C400.749 158.936 401.079 158.456 401.259 157.832H403.023C402.759 158.84 402.231 159.65 401.439 160.262C400.647 160.862 399.657 161.162 398.469 161.162C397.533 161.162 396.699 160.952 395.967 160.532C395.247 160.112 394.683 159.518 394.275 158.75C393.867 157.982 393.663 157.082 393.663 156.05ZM413.704 151.136L407.764 165.644H406.072L408.016 160.892L404.038 151.136H405.856L408.952 159.128L412.012 151.136H413.704ZM416.575 159.65H421.417V161H414.703V159.65L419.491 152.468H414.739V151.136H421.381V152.468L416.575 159.65ZM424.424 149.534C424.112 149.534 423.848 149.426 423.632 149.21C423.428 148.994 423.326 148.73 423.326 148.418C423.326 148.106 423.428 147.842 423.632 147.626C423.848 147.41 424.112 147.302 424.424 147.302C424.736 147.302 424.994 147.41 425.198 147.626C425.414 147.842 425.522 148.106 425.522 148.418C425.522 148.73 425.414 148.994 425.198 149.21C424.994 149.426 424.736 149.534 424.424 149.534ZM425.234 163.142C425.234 164.018 425.012 164.66 424.568 165.068C424.124 165.476 423.476 165.68 422.624 165.68H421.67V164.294H422.354C422.81 164.294 423.128 164.204 423.308 164.024C423.5 163.844 423.596 163.538 423.596 163.106V151.136H425.234V163.142ZM427.395 156.032C427.395 155.024 427.599 154.142 428.007 153.386C428.415 152.618 428.973 152.024 429.681 151.604C430.401 151.184 431.199 150.974 432.075 150.974C432.939 150.974 433.689 151.16 434.325 151.532C434.961 151.904 435.435 152.372 435.747 152.936V151.136H437.403V161H435.747V159.164C435.423 159.74 434.937 160.22 434.289 160.604C433.653 160.976 432.909 161.162 432.057 161.162C431.181 161.162 430.389 160.946 429.681 160.514C428.973 160.082 428.415 159.476 428.007 158.696C427.599 157.916 427.395 157.028 427.395 156.032ZM435.747 156.05C435.747 155.306 435.597 154.658 435.297 154.106C434.997 153.554 434.589 153.134 434.073 152.846C433.569 152.546 433.011 152.396 432.399 152.396C431.787 152.396 431.229 152.54 430.725 152.828C430.221 153.116 429.819 153.536 429.519 154.088C429.219 154.64 429.069 155.288 429.069 156.032C429.069 156.788 429.219 157.448 429.519 158.012C429.819 158.564 430.221 158.99 430.725 159.29C431.229 159.578 431.787 159.722 432.399 159.722C433.011 159.722 433.569 159.578 434.073 159.29C434.589 158.99 434.997 158.564 435.297 158.012C435.597 157.448 435.747 156.794 435.747 156.05Z" fill="#EFF0F3"/>
<rect x="404" y="99.1387" width="79" height="79" rx="3.5" transform="rotate(45 404 99.1387)" stroke="url(#paint3_linear_7790_108873)"/>
<path d="M492.573 152.334L485.906 159.001M485.906 159.001L492.573 165.667M485.906 159.001H501.906C503.321 159.001 504.677 158.439 505.677 157.439C506.678 156.438 507.24 155.082 507.24 153.667V144.334" stroke="#EFF0F3" stroke-width="2" stroke-linecap="round" stroke-linejoin="round"/>
<defs>
<linearGradient id="paint0_linear_7790_108873" x1="289.944" y1="0.431655" x2="125.478" y2="31.4773" gradientUnits="userSpaceOnUse">
<stop stop-color="#0B0F0D"/>
<stop offset="1" stop-color="#12211F"/>
</linearGradient>
<linearGradient id="paint1_linear_7790_108873" x1="289.944" y1="0.431655" x2="125.478" y2="31.4773" gradientUnits="userSpaceOnUse">
<stop stop-color="#2DD282"/>
<stop offset="1" stop-color="#90F4E8"/>
</linearGradient>
<linearGradient id="paint2_linear_7790_108873" x1="482.5" y1="98.4317" x2="399.242" y2="103.735" gradientUnits="userSpaceOnUse">
<stop stop-color="#0B0F0D"/>
<stop offset="1" stop-color="#12211F"/>
</linearGradient>
<linearGradient id="paint3_linear_7790_108873" x1="482.5" y1="98.4317" x2="399.242" y2="103.735" gradientUnits="userSpaceOnUse">
<stop stop-color="#2DD282"/>
<stop offset="1" stop-color="#90F4E8"/>
</linearGradient>
</defs>
</svg>
