<svg width="594" height="142" viewBox="0 0 594 142" fill="none" xmlns="http://www.w3.org/2000/svg">
<path d="M72.5 45.75L61.25 57M61.25 57L50 45.75M61.25 57V30C61.25 27.6131 62.1982 25.3239 63.886 23.636C65.5739 21.9482 67.8631 21 70.25 21H86" stroke="#EFF0F3" stroke-width="2" stroke-linecap="round" stroke-linejoin="round"/>
<path d="M521.5 45.75L532.75 57M532.75 57L544 45.75M532.75 57V30C532.75 27.6131 531.802 25.3239 530.114 23.636C528.426 21.9482 526.137 21 523.75 21H508" stroke="#EFF0F3" stroke-width="2" stroke-linecap="round" stroke-linejoin="round"/>
<line x1="79" y1="21" x2="508" y2="21" stroke="#EFF0F3" stroke-width="2"/>
<rect x="274" y="1" width="42" height="42" rx="21" fill="#010104"/>
<path d="M290 33L286 29M286 29L290 25M286 29H300C301.061 29 302.078 28.5786 302.828 27.8284C303.579 27.0783 304 26.0609 304 25V23M300 11L304 15M304 15L300 19M304 15H290C288.939 15 287.922 15.4214 287.172 16.1716C286.421 16.9217 286 17.9391 286 19V21" stroke="#EFF0F3" stroke-width="2" stroke-linecap="round" stroke-linejoin="round"/>
<rect x="274" y="1" width="42" height="42" rx="21" stroke="#EFF0F3" stroke-width="2"/>
<rect x="0.5" y="87.5" width="108" height="54" fill="url(#paint0_linear_7790_108842)"/>
<path d="M33.774 111.626C33.774 112.67 33.414 113.54 32.694 114.236C31.986 114.92 30.9 115.262 29.436 115.262H27.024V120.5H25.386V107.954H29.436C30.852 107.954 31.926 108.296 32.658 108.98C33.402 109.664 33.774 110.546 33.774 111.626ZM29.436 113.912C30.348 113.912 31.02 113.714 31.452 113.318C31.884 112.922 32.1 112.358 32.1 111.626C32.1 110.078 31.212 109.304 29.436 109.304H27.024V113.912H29.436ZM37.4478 112.238C37.7358 111.674 38.1438 111.236 38.6718 110.924C39.2118 110.612 39.8658 110.456 40.6338 110.456V112.148H40.2018C38.3658 112.148 37.4478 113.144 37.4478 115.136V120.5H35.8098V110.636H37.4478V112.238ZM46.8267 120.662C45.9027 120.662 45.0627 120.452 44.3067 120.032C43.5627 119.612 42.9747 119.018 42.5427 118.25C42.1227 117.47 41.9127 116.57 41.9127 115.55C41.9127 114.542 42.1287 113.654 42.5607 112.886C43.0047 112.106 43.6047 111.512 44.3607 111.104C45.1167 110.684 45.9627 110.474 46.8987 110.474C47.8347 110.474 48.6807 110.684 49.4367 111.104C50.1927 111.512 50.7867 112.1 51.2187 112.868C51.6627 113.636 51.8847 114.53 51.8847 115.55C51.8847 116.57 51.6567 117.47 51.2007 118.25C50.7567 119.018 50.1507 119.612 49.3827 120.032C48.6147 120.452 47.7627 120.662 46.8267 120.662ZM46.8267 119.222C47.4147 119.222 47.9667 119.084 48.4827 118.808C48.9987 118.532 49.4127 118.118 49.7247 117.566C50.0487 117.014 50.2107 116.342 50.2107 115.55C50.2107 114.758 50.0547 114.086 49.7427 113.534C49.4307 112.982 49.0227 112.574 48.5187 112.31C48.0147 112.034 47.4687 111.896 46.8807 111.896C46.2807 111.896 45.7287 112.034 45.2247 112.31C44.7327 112.574 44.3367 112.982 44.0367 113.534C43.7367 114.086 43.5867 114.758 43.5867 115.55C43.5867 116.354 43.7307 117.032 44.0187 117.584C44.3187 118.136 44.7147 118.55 45.2067 118.826C45.6987 119.09 46.2387 119.222 46.8267 119.222ZM54.9203 109.034C54.6083 109.034 54.3443 108.926 54.1283 108.71C53.9243 108.494 53.8223 108.23 53.8223 107.918C53.8223 107.606 53.9243 107.342 54.1283 107.126C54.3443 106.91 54.6083 106.802 54.9203 106.802C55.2323 106.802 55.4903 106.91 55.6943 107.126C55.9103 107.342 56.0183 107.606 56.0183 107.918C56.0183 108.23 55.9103 108.494 55.6943 108.71C55.4903 108.926 55.2323 109.034 54.9203 109.034ZM55.7303 122.642C55.7303 123.518 55.5083 124.16 55.0643 124.568C54.6203 124.976 53.9723 125.18 53.1203 125.18H52.1663V123.794H52.8503C53.3063 123.794 53.6243 123.704 53.8043 123.524C53.9963 123.344 54.0923 123.038 54.0923 122.606V110.636H55.7303V122.642ZM67.5032 115.19C67.5032 115.502 67.4852 115.832 67.4492 116.18H59.5652C59.6252 117.152 59.9552 117.914 60.5552 118.466C61.1672 119.006 61.9052 119.276 62.7692 119.276C63.4772 119.276 64.0652 119.114 64.5332 118.79C65.0132 118.454 65.3492 118.01 65.5412 117.458H67.3052C67.0412 118.406 66.5132 119.18 65.7212 119.78C64.9292 120.368 63.9452 120.662 62.7692 120.662C61.8332 120.662 60.9932 120.452 60.2492 120.032C59.5172 119.612 58.9412 119.018 58.5212 118.25C58.1012 117.47 57.8912 116.57 57.8912 115.55C57.8912 114.53 58.0952 113.636 58.5032 112.868C58.9112 112.1 59.4812 111.512 60.2132 111.104C60.9572 110.684 61.8092 110.474 62.7692 110.474C63.7052 110.474 64.5332 110.678 65.2532 111.086C65.9732 111.494 66.5252 112.058 66.9092 112.778C67.3052 113.486 67.5032 114.29 67.5032 115.19ZM65.8112 114.848C65.8112 114.224 65.6732 113.69 65.3972 113.246C65.1212 112.79 64.7432 112.448 64.2632 112.22C63.7952 111.98 63.2732 111.86 62.6972 111.86C61.8692 111.86 61.1612 112.124 60.5732 112.652C59.9972 113.18 59.6672 113.912 59.5832 114.848H65.8112ZM75.1733 120.5L71.3033 116.144V120.5H69.6653V107.18H71.3033V115.01L75.1013 110.636H77.3873L72.7433 115.55L77.4053 120.5H75.1733ZM80.927 111.986V117.8C80.927 118.28 81.029 118.622 81.233 118.826C81.437 119.018 81.791 119.114 82.295 119.114H83.501V120.5H82.025C81.113 120.5 80.429 120.29 79.973 119.87C79.517 119.45 79.289 118.76 79.289 117.8V111.986H78.011V110.636H79.289V108.152H80.927V110.636H83.501V111.986H80.927Z" fill="#EFF0F3"/>
<rect x="0.5" y="87.5" width="108" height="54" stroke="url(#paint1_linear_7790_108842)"/>
<path d="M120.664 114.499H139.331M139.331 114.499L129.997 105.166M139.331 114.499L129.997 123.833" stroke="#EFF0F3" stroke-width="2" stroke-linecap="round" stroke-linejoin="round"/>
<rect x="151.5" y="88" width="109" height="53" fill="url(#paint2_linear_7790_108842)"/>
<path d="M192.669 126.5V123.833C192.668 122.652 192.275 121.504 191.551 120.57C190.827 119.636 189.813 118.969 188.669 118.673M184.669 126.5V123.833C184.669 122.419 184.107 121.062 183.107 120.062C182.107 119.062 180.75 118.5 179.336 118.5H168.669C167.255 118.5 165.898 119.062 164.898 120.062C163.898 121.062 163.336 122.419 163.336 123.833V126.5M183.336 102.673C184.483 102.967 185.5 103.634 186.226 104.57C186.952 105.505 187.346 106.656 187.346 107.84C187.346 109.024 186.952 110.175 186.226 111.11C185.5 112.046 184.483 112.713 183.336 113.007M179.336 107.833C179.336 110.779 176.948 113.167 174.003 113.167C171.057 113.167 168.669 110.779 168.669 107.833C168.669 104.888 171.057 102.5 174.003 102.5C176.948 102.5 179.336 104.888 179.336 107.833Z" stroke="#EFF0F3" stroke-width="2" stroke-linecap="round" stroke-linejoin="round"/>
<path d="M211.108 107.954V109.286H207.688V120.5H206.05V109.286H202.612V107.954H211.108ZM222.124 115.19C222.124 115.502 222.106 115.832 222.07 116.18H214.186C214.246 117.152 214.576 117.914 215.176 118.466C215.788 119.006 216.526 119.276 217.39 119.276C218.098 119.276 218.686 119.114 219.154 118.79C219.634 118.454 219.97 118.01 220.162 117.458H221.926C221.662 118.406 221.134 119.18 220.342 119.78C219.55 120.368 218.566 120.662 217.39 120.662C216.454 120.662 215.614 120.452 214.87 120.032C214.138 119.612 213.562 119.018 213.142 118.25C212.722 117.47 212.512 116.57 212.512 115.55C212.512 114.53 212.716 113.636 213.124 112.868C213.532 112.1 214.102 111.512 214.834 111.104C215.578 110.684 216.43 110.474 217.39 110.474C218.326 110.474 219.154 110.678 219.874 111.086C220.594 111.494 221.146 112.058 221.53 112.778C221.926 113.486 222.124 114.29 222.124 115.19ZM220.432 114.848C220.432 114.224 220.294 113.69 220.018 113.246C219.742 112.79 219.364 112.448 218.884 112.22C218.416 111.98 217.894 111.86 217.318 111.86C216.49 111.86 215.782 112.124 215.194 112.652C214.618 113.18 214.288 113.912 214.204 114.848H220.432ZM227.778 120.662C227.022 120.662 226.344 120.536 225.744 120.284C225.144 120.02 224.67 119.66 224.322 119.204C223.974 118.736 223.782 118.202 223.746 117.602H225.438C225.486 118.094 225.714 118.496 226.122 118.808C226.542 119.12 227.088 119.276 227.76 119.276C228.384 119.276 228.876 119.138 229.236 118.862C229.596 118.586 229.776 118.238 229.776 117.818C229.776 117.386 229.584 117.068 229.2 116.864C228.816 116.648 228.222 116.438 227.418 116.234C226.686 116.042 226.086 115.85 225.618 115.658C225.162 115.454 224.766 115.16 224.43 114.776C224.106 114.38 223.944 113.864 223.944 113.228C223.944 112.724 224.094 112.262 224.394 111.842C224.694 111.422 225.12 111.092 225.672 110.852C226.224 110.6 226.854 110.474 227.562 110.474C228.654 110.474 229.536 110.75 230.208 111.302C230.88 111.854 231.24 112.61 231.288 113.57H229.65C229.614 113.054 229.404 112.64 229.02 112.328C228.648 112.016 228.144 111.86 227.508 111.86C226.92 111.86 226.452 111.986 226.104 112.238C225.756 112.49 225.582 112.82 225.582 113.228C225.582 113.552 225.684 113.822 225.888 114.038C226.104 114.242 226.368 114.41 226.68 114.542C227.004 114.662 227.448 114.8 228.012 114.956C228.72 115.148 229.296 115.34 229.74 115.532C230.184 115.712 230.562 115.988 230.874 116.36C231.198 116.732 231.366 117.218 231.378 117.818C231.378 118.358 231.228 118.844 230.928 119.276C230.628 119.708 230.202 120.05 229.65 120.302C229.11 120.542 228.486 120.662 227.778 120.662ZM235.689 111.986V117.8C235.689 118.28 235.791 118.622 235.995 118.826C236.199 119.018 236.553 119.114 237.057 119.114H238.263V120.5H236.787C235.875 120.5 235.191 120.29 234.735 119.87C234.279 119.45 234.051 118.76 234.051 117.8V111.986H232.773V110.636H234.051V108.152H235.689V110.636H238.263V111.986H235.689ZM248.743 110.636L242.803 125.144H241.111L243.055 120.392L239.077 110.636H240.895L243.991 118.628L247.051 110.636H248.743Z" fill="#EFF0F3"/>
<rect x="151.5" y="88" width="109" height="53" stroke="url(#paint3_linear_7790_108842)"/>
<path d="M272.664 114.499H291.331M291.331 114.499L281.997 105.166M291.331 114.499L281.997 123.833" stroke="#EFF0F3" stroke-width="2" stroke-linecap="round" stroke-linejoin="round"/>
<rect x="303.5" y="87.5" width="114" height="54" fill="url(#paint4_linear_7790_108842)"/>
<path d="M329.772 119.078H335.892V120.5H327.828V119.204L333.912 109.376H327.9V107.954H335.856V109.25L329.772 119.078ZM349.986 110.456C350.754 110.456 351.438 110.618 352.038 110.942C352.638 111.254 353.112 111.728 353.46 112.364C353.808 113 353.982 113.774 353.982 114.686V120.5H352.362V114.92C352.362 113.936 352.116 113.186 351.624 112.67C351.144 112.142 350.49 111.878 349.662 111.878C348.81 111.878 348.132 112.154 347.628 112.706C347.124 113.246 346.872 114.032 346.872 115.064V120.5H345.252V114.92C345.252 113.936 345.006 113.186 344.514 112.67C344.034 112.142 343.38 111.878 342.552 111.878C341.7 111.878 341.022 112.154 340.518 112.706C340.014 113.246 339.762 114.032 339.762 115.064V120.5H338.124V110.636H339.762V112.058C340.086 111.542 340.518 111.146 341.058 110.87C341.61 110.594 342.216 110.456 342.876 110.456C343.704 110.456 344.436 110.642 345.072 111.014C345.708 111.386 346.182 111.932 346.494 112.652C346.77 111.956 347.226 111.416 347.862 111.032C348.498 110.648 349.206 110.456 349.986 110.456ZM357.515 109.034C357.203 109.034 356.939 108.926 356.723 108.71C356.507 108.494 356.399 108.23 356.399 107.918C356.399 107.606 356.507 107.342 356.723 107.126C356.939 106.91 357.203 106.802 357.515 106.802C357.815 106.802 358.067 106.91 358.271 107.126C358.487 107.342 358.595 107.606 358.595 107.918C358.595 108.23 358.487 108.494 358.271 108.71C358.067 108.926 357.815 109.034 357.515 109.034ZM358.307 110.636V120.5H356.669V110.636H358.307ZM360.487 115.532C360.487 114.524 360.691 113.642 361.099 112.886C361.507 112.118 362.065 111.524 362.773 111.104C363.493 110.684 364.291 110.474 365.167 110.474C366.031 110.474 366.781 110.66 367.417 111.032C368.053 111.404 368.527 111.872 368.839 112.436V110.636H370.495V120.5H368.839V118.664C368.515 119.24 368.029 119.72 367.381 120.104C366.745 120.476 366.001 120.662 365.149 120.662C364.273 120.662 363.481 120.446 362.773 120.014C362.065 119.582 361.507 118.976 361.099 118.196C360.691 117.416 360.487 116.528 360.487 115.532ZM368.839 115.55C368.839 114.806 368.689 114.158 368.389 113.606C368.089 113.054 367.681 112.634 367.165 112.346C366.661 112.046 366.103 111.896 365.491 111.896C364.879 111.896 364.321 112.04 363.817 112.328C363.313 112.616 362.911 113.036 362.611 113.588C362.311 114.14 362.161 114.788 362.161 115.532C362.161 116.288 362.311 116.948 362.611 117.512C362.911 118.064 363.313 118.49 363.817 118.79C364.321 119.078 364.879 119.222 365.491 119.222C366.103 119.222 366.661 119.078 367.165 118.79C367.681 118.49 368.089 118.064 368.389 117.512C368.689 116.948 368.839 116.294 368.839 115.55ZM378.069 110.456C379.269 110.456 380.241 110.822 380.985 111.554C381.729 112.274 382.101 113.318 382.101 114.686V120.5H380.481V114.92C380.481 113.936 380.235 113.186 379.743 112.67C379.251 112.142 378.579 111.878 377.727 111.878C376.863 111.878 376.173 112.148 375.657 112.688C375.153 113.228 374.901 114.014 374.901 115.046V120.5H373.263V110.636H374.901V112.04C375.225 111.536 375.663 111.146 376.215 110.87C376.779 110.594 377.397 110.456 378.069 110.456ZM393.273 110.636L387.333 125.144H385.641L387.585 120.392L383.607 110.636H385.425L388.521 118.628L391.581 110.636H393.273Z" fill="#EFF0F3"/>
<rect x="303.5" y="87.5" width="114" height="54" stroke="url(#paint5_linear_7790_108842)"/>
<path d="M429.664 114.499H448.331M448.331 114.499L438.997 105.166M448.331 114.499L438.997 123.833" stroke="#EFF0F3" stroke-width="2" stroke-linecap="round" stroke-linejoin="round"/>
<rect x="460.5" y="87.5" width="133" height="54" fill="url(#paint6_linear_7790_108842)"/>
<path d="M493.774 111.626C493.774 112.67 493.414 113.54 492.694 114.236C491.986 114.92 490.9 115.262 489.436 115.262H487.024V120.5H485.386V107.954H489.436C490.852 107.954 491.926 108.296 492.658 108.98C493.402 109.664 493.774 110.546 493.774 111.626ZM489.436 113.912C490.348 113.912 491.02 113.714 491.452 113.318C491.884 112.922 492.1 112.358 492.1 111.626C492.1 110.078 491.212 109.304 489.436 109.304H487.024V113.912H489.436ZM497.448 112.238C497.736 111.674 498.144 111.236 498.672 110.924C499.212 110.612 499.866 110.456 500.634 110.456V112.148H500.202C498.366 112.148 497.448 113.144 497.448 115.136V120.5H495.81V110.636H497.448V112.238ZM506.827 120.662C505.903 120.662 505.063 120.452 504.307 120.032C503.563 119.612 502.975 119.018 502.543 118.25C502.123 117.47 501.913 116.57 501.913 115.55C501.913 114.542 502.129 113.654 502.561 112.886C503.005 112.106 503.605 111.512 504.361 111.104C505.117 110.684 505.963 110.474 506.899 110.474C507.835 110.474 508.681 110.684 509.437 111.104C510.193 111.512 510.787 112.1 511.219 112.868C511.663 113.636 511.885 114.53 511.885 115.55C511.885 116.57 511.657 117.47 511.201 118.25C510.757 119.018 510.151 119.612 509.383 120.032C508.615 120.452 507.763 120.662 506.827 120.662ZM506.827 119.222C507.415 119.222 507.967 119.084 508.483 118.808C508.999 118.532 509.413 118.118 509.725 117.566C510.049 117.014 510.211 116.342 510.211 115.55C510.211 114.758 510.055 114.086 509.743 113.534C509.431 112.982 509.023 112.574 508.519 112.31C508.015 112.034 507.469 111.896 506.881 111.896C506.281 111.896 505.729 112.034 505.225 112.31C504.733 112.574 504.337 112.982 504.037 113.534C503.737 114.086 503.587 114.758 503.587 115.55C503.587 116.354 503.731 117.032 504.019 117.584C504.319 118.136 504.715 118.55 505.207 118.826C505.699 119.09 506.239 119.222 506.827 119.222ZM514.92 109.034C514.608 109.034 514.344 108.926 514.128 108.71C513.924 108.494 513.822 108.23 513.822 107.918C513.822 107.606 513.924 107.342 514.128 107.126C514.344 106.91 514.608 106.802 514.92 106.802C515.232 106.802 515.49 106.91 515.694 107.126C515.91 107.342 516.018 107.606 516.018 107.918C516.018 108.23 515.91 108.494 515.694 108.71C515.49 108.926 515.232 109.034 514.92 109.034ZM515.73 122.642C515.73 123.518 515.508 124.16 515.064 124.568C514.62 124.976 513.972 125.18 513.12 125.18H512.166V123.794H512.85C513.306 123.794 513.624 123.704 513.804 123.524C513.996 123.344 514.092 123.038 514.092 122.606V110.636H515.73V122.642ZM527.503 115.19C527.503 115.502 527.485 115.832 527.449 116.18H519.565C519.625 117.152 519.955 117.914 520.555 118.466C521.167 119.006 521.905 119.276 522.769 119.276C523.477 119.276 524.065 119.114 524.533 118.79C525.013 118.454 525.349 118.01 525.541 117.458H527.305C527.041 118.406 526.513 119.18 525.721 119.78C524.929 120.368 523.945 120.662 522.769 120.662C521.833 120.662 520.993 120.452 520.249 120.032C519.517 119.612 518.941 119.018 518.521 118.25C518.101 117.47 517.891 116.57 517.891 115.55C517.891 114.53 518.095 113.636 518.503 112.868C518.911 112.1 519.481 111.512 520.213 111.104C520.957 110.684 521.809 110.474 522.769 110.474C523.705 110.474 524.533 110.678 525.253 111.086C525.973 111.494 526.525 112.058 526.909 112.778C527.305 113.486 527.503 114.29 527.503 115.19ZM525.811 114.848C525.811 114.224 525.673 113.69 525.397 113.246C525.121 112.79 524.743 112.448 524.263 112.22C523.795 111.98 523.273 111.86 522.697 111.86C521.869 111.86 521.161 112.124 520.573 112.652C519.997 113.18 519.667 113.912 519.583 114.848H525.811ZM535.173 120.5L531.303 116.144V120.5H529.665V107.18H531.303V115.01L535.101 110.636H537.387L532.743 115.55L537.405 120.5H535.173ZM540.927 111.986V117.8C540.927 118.28 541.029 118.622 541.233 118.826C541.437 119.018 541.791 119.114 542.295 119.114H543.501V120.5H542.025C541.113 120.5 540.429 120.29 539.973 119.87C539.517 119.45 539.289 118.76 539.289 117.8V111.986H538.011V110.636H539.289V108.152H540.927V110.636H543.501V111.986H540.927ZM553.956 118.988L557.016 110.636H558.762L554.892 120.5H552.984L549.114 110.636H550.878L553.956 118.988ZM563.776 115.694C564.856 114.65 565.606 113.798 566.026 113.138C566.458 112.478 566.674 111.818 566.674 111.158C566.674 110.45 566.47 109.892 566.062 109.484C565.654 109.064 565.048 108.854 564.244 108.854C563.428 108.854 562.798 109.118 562.354 109.646C561.91 110.162 561.676 110.864 561.652 111.752H560.068C560.08 110.828 560.272 110.042 560.644 109.394C561.016 108.746 561.514 108.26 562.138 107.936C562.762 107.612 563.47 107.45 564.262 107.45C565.522 107.45 566.512 107.792 567.232 108.476C567.964 109.148 568.33 110.042 568.33 111.158C568.33 111.974 568.084 112.79 567.592 113.606C567.1 114.422 566.242 115.424 565.018 116.612L562.408 119.132H568.672V120.5H560.014V119.33L563.776 115.694Z" fill="#EFF0F3"/>
<rect x="460.5" y="87.5" width="133" height="54" stroke="url(#paint7_linear_7790_108842)"/>
<defs>
<linearGradient id="paint0_linear_7790_108842" x1="106.956" y1="87" x2="-5.15626" y2="101.152" gradientUnits="userSpaceOnUse">
<stop stop-color="#0B0F0D"/>
<stop offset="1" stop-color="#12211F"/>
</linearGradient>
<linearGradient id="paint1_linear_7790_108842" x1="106.956" y1="87" x2="-5.15626" y2="101.152" gradientUnits="userSpaceOnUse">
<stop stop-color="#2DD282"/>
<stop offset="1" stop-color="#90F4E8"/>
</linearGradient>
<linearGradient id="paint2_linear_7790_108842" x1="258.937" y1="87.5" x2="145.897" y2="102.167" gradientUnits="userSpaceOnUse">
<stop stop-color="#0B0F0D"/>
<stop offset="1" stop-color="#12211F"/>
</linearGradient>
<linearGradient id="paint3_linear_7790_108842" x1="258.937" y1="87.5" x2="145.897" y2="102.167" gradientUnits="userSpaceOnUse">
<stop stop-color="#2DD282"/>
<stop offset="1" stop-color="#90F4E8"/>
</linearGradient>
<linearGradient id="paint4_linear_7790_108842" x1="415.844" y1="87" x2="297.769" y2="102.725" gradientUnits="userSpaceOnUse">
<stop stop-color="#0B0F0D"/>
<stop offset="1" stop-color="#12211F"/>
</linearGradient>
<linearGradient id="paint5_linear_7790_108842" x1="415.844" y1="87" x2="297.769" y2="102.725" gradientUnits="userSpaceOnUse">
<stop stop-color="#2DD282"/>
<stop offset="1" stop-color="#90F4E8"/>
</linearGradient>
<linearGradient id="paint6_linear_7790_108842" x1="591.487" y1="87" x2="454.758" y2="108.218" gradientUnits="userSpaceOnUse">
<stop stop-color="#0B0F0D"/>
<stop offset="1" stop-color="#12211F"/>
</linearGradient>
<linearGradient id="paint7_linear_7790_108842" x1="591.487" y1="87" x2="454.758" y2="108.218" gradientUnits="userSpaceOnUse">
<stop stop-color="#2DD282"/>
<stop offset="1" stop-color="#90F4E8"/>
</linearGradient>
</defs>
</svg>
