<svg width="574" height="444" viewBox="0 0 574 444" fill="none" xmlns="http://www.w3.org/2000/svg">
<rect x="1" y="0.5" width="162" height="54" fill="url(#paint0_linear_7790_108991)"/>
<path d="M21.864 33.626C21.036 33.626 20.292 33.482 19.632 33.194C18.984 32.894 18.474 32.486 18.102 31.97C17.73 31.442 17.538 30.836 17.526 30.152H19.272C19.332 30.74 19.572 31.238 19.992 31.646C20.424 32.042 21.048 32.24 21.864 32.24C22.644 32.24 23.256 32.048 23.7 31.664C24.156 31.268 24.384 30.764 24.384 30.152C24.384 29.672 24.252 29.282 23.988 28.982C23.724 28.682 23.394 28.454 22.998 28.298C22.602 28.142 22.068 27.974 21.396 27.794C20.568 27.578 19.902 27.362 19.398 27.146C18.906 26.93 18.48 26.594 18.12 26.138C17.772 25.67 17.598 25.046 17.598 24.266C17.598 23.582 17.772 22.976 18.12 22.448C18.468 21.92 18.954 21.512 19.578 21.224C20.214 20.936 20.94 20.792 21.756 20.792C22.932 20.792 23.892 21.086 24.636 21.674C25.392 22.262 25.818 23.042 25.914 24.014H24.114C24.054 23.534 23.802 23.114 23.358 22.754C22.914 22.382 22.326 22.196 21.594 22.196C20.91 22.196 20.352 22.376 19.92 22.736C19.488 23.084 19.272 23.576 19.272 24.212C19.272 24.668 19.398 25.04 19.65 25.328C19.914 25.616 20.232 25.838 20.604 25.994C20.988 26.138 21.522 26.306 22.206 26.498C23.034 26.726 23.7 26.954 24.204 27.182C24.708 27.398 25.14 27.74 25.5 28.208C25.86 28.664 26.04 29.288 26.04 30.08C26.04 30.692 25.878 31.268 25.554 31.808C25.23 32.348 24.75 32.786 24.114 33.122C23.478 33.458 22.728 33.626 21.864 33.626ZM30.4485 24.986V30.8C30.4485 31.28 30.5505 31.622 30.7545 31.826C30.9585 32.018 31.3125 32.114 31.8165 32.114H33.0225V33.5H31.5465C30.6345 33.5 29.9505 33.29 29.4945 32.87C29.0385 32.45 28.8105 31.76 28.8105 30.8V24.986H27.5325V23.636H28.8105V21.152H30.4485V23.636H33.0225V24.986H30.4485ZM36.6451 25.238C36.9331 24.674 37.3411 24.236 37.8691 23.924C38.4091 23.612 39.0631 23.456 39.8311 23.456V25.148H39.3991C37.5631 25.148 36.6451 26.144 36.6451 28.136V33.5H35.0071V23.636H36.6451V25.238ZM46.0239 33.662C45.0999 33.662 44.2599 33.452 43.5039 33.032C42.7599 32.612 42.1719 32.018 41.7399 31.25C41.3199 30.47 41.1099 29.57 41.1099 28.55C41.1099 27.542 41.3259 26.654 41.7579 25.886C42.2019 25.106 42.8019 24.512 43.5579 24.104C44.3139 23.684 45.1599 23.474 46.0959 23.474C47.0319 23.474 47.8779 23.684 48.6339 24.104C49.3899 24.512 49.9839 25.1 50.4159 25.868C50.8599 26.636 51.0819 27.53 51.0819 28.55C51.0819 29.57 50.8539 30.47 50.3979 31.25C49.9539 32.018 49.3479 32.612 48.5799 33.032C47.8119 33.452 46.9599 33.662 46.0239 33.662ZM46.0239 32.222C46.6119 32.222 47.1639 32.084 47.6799 31.808C48.1959 31.532 48.6099 31.118 48.9219 30.566C49.2459 30.014 49.4079 29.342 49.4079 28.55C49.4079 27.758 49.2519 27.086 48.9399 26.534C48.6279 25.982 48.2199 25.574 47.7159 25.31C47.2119 25.034 46.6659 24.896 46.0779 24.896C45.4779 24.896 44.9259 25.034 44.4219 25.31C43.9299 25.574 43.5339 25.982 43.2339 26.534C42.9339 27.086 42.7839 27.758 42.7839 28.55C42.7839 29.354 42.9279 30.032 43.2159 30.584C43.5159 31.136 43.9119 31.55 44.4039 31.826C44.8959 32.09 45.4359 32.222 46.0239 32.222ZM58.0416 23.456C59.2416 23.456 60.2136 23.822 60.9576 24.554C61.7016 25.274 62.0736 26.318 62.0736 27.686V33.5H60.4536V27.92C60.4536 26.936 60.2076 26.186 59.7156 25.67C59.2236 25.142 58.5516 24.878 57.6996 24.878C56.8356 24.878 56.1456 25.148 55.6296 25.688C55.1256 26.228 54.8736 27.014 54.8736 28.046V33.5H53.2356V23.636H54.8736V25.04C55.1976 24.536 55.6356 24.146 56.1876 23.87C56.7516 23.594 57.3696 23.456 58.0416 23.456ZM64.1373 28.532C64.1373 27.524 64.3413 26.642 64.7493 25.886C65.1573 25.118 65.7153 24.524 66.4233 24.104C67.1433 23.684 67.9413 23.474 68.8173 23.474C69.6813 23.474 70.4313 23.66 71.0673 24.032C71.7033 24.404 72.1773 24.872 72.4893 25.436V23.636H74.1453V33.5H72.4893V31.664C72.1653 32.24 71.6793 32.72 71.0313 33.104C70.3953 33.476 69.6513 33.662 68.7993 33.662C67.9233 33.662 67.1313 33.446 66.4233 33.014C65.7153 32.582 65.1573 31.976 64.7493 31.196C64.3413 30.416 64.1373 29.528 64.1373 28.532ZM72.4893 28.55C72.4893 27.806 72.3393 27.158 72.0393 26.606C71.7393 26.054 71.3313 25.634 70.8153 25.346C70.3113 25.046 69.7533 24.896 69.1413 24.896C68.5293 24.896 67.9713 25.04 67.4673 25.328C66.9633 25.616 66.5613 26.036 66.2613 26.588C65.9613 27.14 65.8113 27.788 65.8113 28.532C65.8113 29.288 65.9613 29.948 66.2613 30.512C66.5613 31.064 66.9633 31.49 67.4673 31.79C67.9713 32.078 68.5293 32.222 69.1413 32.222C69.7533 32.222 70.3113 32.078 70.8153 31.79C71.3313 31.49 71.7393 31.064 72.0393 30.512C72.3393 29.948 72.4893 29.294 72.4893 28.55ZM85.7802 23.474C86.6322 23.474 87.3762 23.66 88.0122 24.032C88.6602 24.404 89.1402 24.872 89.4522 25.436V23.636H91.1082V33.716C91.1082 34.616 90.9162 35.414 90.5322 36.11C90.1482 36.818 89.5962 37.37 88.8762 37.766C88.1682 38.162 87.3402 38.36 86.3922 38.36C85.0962 38.36 84.0162 38.054 83.1522 37.442C82.2882 36.83 81.7782 35.996 81.6222 34.94H83.2422C83.4222 35.54 83.7942 36.02 84.3582 36.38C84.9222 36.752 85.6002 36.938 86.3922 36.938C87.2922 36.938 88.0242 36.656 88.5882 36.092C89.1642 35.528 89.4522 34.736 89.4522 33.716V31.646C89.1282 32.222 88.6482 32.702 88.0122 33.086C87.3762 33.47 86.6322 33.662 85.7802 33.662C84.9042 33.662 84.1062 33.446 83.3862 33.014C82.6782 32.582 82.1202 31.976 81.7122 31.196C81.3042 30.416 81.1002 29.528 81.1002 28.532C81.1002 27.524 81.3042 26.642 81.7122 25.886C82.1202 25.118 82.6782 24.524 83.3862 24.104C84.1062 23.684 84.9042 23.474 85.7802 23.474ZM89.4522 28.55C89.4522 27.806 89.3022 27.158 89.0022 26.606C88.7022 26.054 88.2942 25.634 87.7782 25.346C87.2742 25.046 86.7162 24.896 86.1042 24.896C85.4922 24.896 84.9342 25.04 84.4302 25.328C83.9262 25.616 83.5242 26.036 83.2242 26.588C82.9242 27.14 82.7742 27.788 82.7742 28.532C82.7742 29.288 82.9242 29.948 83.2242 30.512C83.5242 31.064 83.9262 31.49 84.4302 31.79C84.9342 32.078 85.4922 32.222 86.1042 32.222C86.7162 32.222 87.2742 32.078 87.7782 31.79C88.2942 31.49 88.7022 31.064 89.0022 30.512C89.3022 29.948 89.4522 29.294 89.4522 28.55ZM96.8462 26.3L95.5682 26.804V33.5H93.9302V27.434L92.6522 27.938V26.642L93.9302 26.156V20.18H95.5682V25.508L96.8462 25.022V26.3ZM102.696 33.662C101.772 33.662 100.932 33.452 100.176 33.032C99.4318 32.612 98.8438 32.018 98.4118 31.25C97.9918 30.47 97.7818 29.57 97.7818 28.55C97.7818 27.542 97.9978 26.654 98.4298 25.886C98.8738 25.106 99.4738 24.512 100.23 24.104C100.986 23.684 101.832 23.474 102.768 23.474C103.704 23.474 104.55 23.684 105.306 24.104C106.062 24.512 106.656 25.1 107.088 25.868C107.532 26.636 107.754 27.53 107.754 28.55C107.754 29.57 107.526 30.47 107.07 31.25C106.626 32.018 106.02 32.612 105.252 33.032C104.484 33.452 103.632 33.662 102.696 33.662ZM102.696 32.222C103.284 32.222 103.836 32.084 104.352 31.808C104.868 31.532 105.282 31.118 105.594 30.566C105.918 30.014 106.08 29.342 106.08 28.55C106.08 27.758 105.924 27.086 105.612 26.534C105.3 25.982 104.892 25.574 104.388 25.31C103.884 25.034 103.338 24.896 102.75 24.896C102.15 24.896 101.598 25.034 101.094 25.31C100.602 25.574 100.206 25.982 99.9058 26.534C99.6058 27.086 99.4558 27.758 99.4558 28.55C99.4558 29.354 99.5998 30.032 99.8878 30.584C100.188 31.136 100.584 31.55 101.076 31.826C101.568 32.09 102.108 32.222 102.696 32.222ZM104.532 20.72L100.698 22.772V21.548L104.532 19.298V20.72ZM123.047 23.636L119.969 33.5H118.277L115.901 25.67L113.525 33.5H111.833L108.737 23.636H110.411L112.679 31.916L115.127 23.636H116.801L119.195 31.934L121.427 23.636H123.047ZM129.479 23.456C130.679 23.456 131.651 23.822 132.395 24.554C133.139 25.274 133.511 26.318 133.511 27.686V33.5H131.891V27.92C131.891 26.936 131.645 26.186 131.153 25.67C130.661 25.142 129.989 24.878 129.137 24.878C128.273 24.878 127.583 25.148 127.067 25.688C126.563 26.228 126.311 27.014 126.311 28.046V33.5H124.673V23.636H126.311V25.04C126.635 24.536 127.073 24.146 127.625 23.87C128.189 23.594 128.807 23.456 129.479 23.456ZM135.575 28.532C135.575 27.524 135.779 26.642 136.187 25.886C136.595 25.118 137.153 24.524 137.861 24.104C138.581 23.684 139.379 23.474 140.255 23.474C141.119 23.474 141.869 23.66 142.505 24.032C143.141 24.404 143.615 24.872 143.927 25.436V23.636H145.583V33.5H143.927V31.664C143.603 32.24 143.117 32.72 142.469 33.104C141.833 33.476 141.089 33.662 140.237 33.662C139.361 33.662 138.569 33.446 137.861 33.014C137.153 32.582 136.595 31.976 136.187 31.196C135.779 30.416 135.575 29.528 135.575 28.532ZM143.927 28.55C143.927 27.806 143.777 27.158 143.477 26.606C143.177 26.054 142.769 25.634 142.253 25.346C141.749 25.046 141.191 24.896 140.579 24.896C139.967 24.896 139.409 25.04 138.905 25.328C138.401 25.616 137.999 26.036 137.699 26.588C137.399 27.14 137.249 27.788 137.249 28.532C137.249 29.288 137.399 29.948 137.699 30.512C137.999 31.064 138.401 31.49 138.905 31.79C139.409 32.078 139.967 32.222 140.579 32.222C141.191 32.222 141.749 32.078 142.253 31.79C142.769 31.49 143.177 31.064 143.477 30.512C143.777 29.948 143.927 29.294 143.927 28.55Z" fill="#EFF0F3"/>
<rect x="1" y="0.5" width="162" height="54" stroke="url(#paint1_linear_7790_108991)"/>
<rect x="213.5" y="92.5" width="118" height="54" fill="#010104"/>
<path d="M246.19 125.5L241.024 119.776V125.5H239.386V112.954H241.024V118.768L246.208 112.954H248.278L242.59 119.236L248.332 125.5H246.19ZM254.463 125.662C253.539 125.662 252.699 125.452 251.943 125.032C251.199 124.612 250.611 124.018 250.179 123.25C249.759 122.47 249.549 121.57 249.549 120.55C249.549 119.542 249.765 118.654 250.197 117.886C250.641 117.106 251.241 116.512 251.997 116.104C252.753 115.684 253.599 115.474 254.535 115.474C255.471 115.474 256.317 115.684 257.073 116.104C257.829 116.512 258.423 117.1 258.855 117.868C259.299 118.636 259.521 119.53 259.521 120.55C259.521 121.57 259.293 122.47 258.837 123.25C258.393 124.018 257.787 124.612 257.019 125.032C256.251 125.452 255.399 125.662 254.463 125.662ZM254.463 124.222C255.051 124.222 255.603 124.084 256.119 123.808C256.635 123.532 257.049 123.118 257.361 122.566C257.685 122.014 257.847 121.342 257.847 120.55C257.847 119.758 257.691 119.086 257.379 118.534C257.067 117.982 256.659 117.574 256.155 117.31C255.651 117.034 255.105 116.896 254.517 116.896C253.917 116.896 253.365 117.034 252.861 117.31C252.369 117.574 251.973 117.982 251.673 118.534C251.373 119.086 251.223 119.758 251.223 120.55C251.223 121.354 251.367 122.032 251.655 122.584C251.955 123.136 252.351 123.55 252.843 123.826C253.335 124.09 253.875 124.222 254.463 124.222ZM266.481 115.456C267.681 115.456 268.653 115.822 269.397 116.554C270.141 117.274 270.513 118.318 270.513 119.686V125.5H268.893V119.92C268.893 118.936 268.647 118.186 268.155 117.67C267.663 117.142 266.991 116.878 266.139 116.878C265.275 116.878 264.585 117.148 264.069 117.688C263.565 118.228 263.313 119.014 263.313 120.046V125.5H261.675V115.636H263.313V117.04C263.637 116.536 264.075 116.146 264.627 115.87C265.191 115.594 265.809 115.456 266.481 115.456ZM275.187 116.986V122.8C275.187 123.28 275.289 123.622 275.493 123.826C275.697 124.018 276.051 124.114 276.555 124.114H277.761V125.5H276.285C275.373 125.5 274.689 125.29 274.233 124.87C273.777 124.45 273.549 123.76 273.549 122.8V116.986H272.271V115.636H273.549V113.152H275.187V115.636H277.761V116.986H275.187ZM279.133 120.532C279.133 119.524 279.337 118.642 279.745 117.886C280.153 117.118 280.711 116.524 281.419 116.104C282.139 115.684 282.937 115.474 283.813 115.474C284.677 115.474 285.427 115.66 286.063 116.032C286.699 116.404 287.173 116.872 287.485 117.436V115.636H289.141V125.5H287.485V123.664C287.161 124.24 286.675 124.72 286.027 125.104C285.391 125.476 284.647 125.662 283.795 125.662C282.919 125.662 282.127 125.446 281.419 125.014C280.711 124.582 280.153 123.976 279.745 123.196C279.337 122.416 279.133 121.528 279.133 120.532ZM287.485 120.55C287.485 119.806 287.335 119.158 287.035 118.606C286.735 118.054 286.327 117.634 285.811 117.346C285.307 117.046 284.749 116.896 284.137 116.896C283.525 116.896 282.967 117.04 282.463 117.328C281.959 117.616 281.557 118.036 281.257 118.588C280.957 119.14 280.807 119.788 280.807 120.532C280.807 121.288 280.957 121.948 281.257 122.512C281.557 123.064 281.959 123.49 282.463 123.79C282.967 124.078 283.525 124.222 284.137 124.222C284.749 124.222 285.307 124.078 285.811 123.79C286.327 123.49 286.735 123.064 287.035 122.512C287.335 121.948 287.485 121.294 287.485 120.55ZM297.417 125.5L293.547 121.144V125.5H291.909V112.18H293.547V120.01L297.345 115.636H299.631L294.987 120.55L299.649 125.5H297.417ZM303.171 116.986V122.8C303.171 123.28 303.273 123.622 303.477 123.826C303.681 124.018 304.035 124.114 304.539 124.114H305.745V125.5H304.269C303.357 125.5 302.673 125.29 302.217 124.87C301.761 124.45 301.533 123.76 301.533 122.8V116.986H300.255V115.636H301.533V113.152H303.171V115.636H305.745V116.986H303.171Z" fill="#EFF0F3"/>
<rect x="213.5" y="92.5" width="118" height="54" stroke="#5B5F67"/>
<rect x="213.5" y="191.5" width="97" height="54" fill="#010104"/>
<path d="M243.364 224.626C242.536 224.626 241.792 224.482 241.132 224.194C240.484 223.894 239.974 223.486 239.602 222.97C239.23 222.442 239.038 221.836 239.026 221.152H240.772C240.832 221.74 241.072 222.238 241.492 222.646C241.924 223.042 242.548 223.24 243.364 223.24C244.144 223.24 244.756 223.048 245.2 222.664C245.656 222.268 245.884 221.764 245.884 221.152C245.884 220.672 245.752 220.282 245.488 219.982C245.224 219.682 244.894 219.454 244.498 219.298C244.102 219.142 243.568 218.974 242.896 218.794C242.068 218.578 241.402 218.362 240.898 218.146C240.406 217.93 239.98 217.594 239.62 217.138C239.272 216.67 239.098 216.046 239.098 215.266C239.098 214.582 239.272 213.976 239.62 213.448C239.968 212.92 240.454 212.512 241.078 212.224C241.714 211.936 242.44 211.792 243.256 211.792C244.432 211.792 245.392 212.086 246.136 212.674C246.892 213.262 247.318 214.042 247.414 215.014H245.614C245.554 214.534 245.302 214.114 244.858 213.754C244.414 213.382 243.826 213.196 243.094 213.196C242.41 213.196 241.852 213.376 241.42 213.736C240.988 214.084 240.772 214.576 240.772 215.212C240.772 215.668 240.898 216.04 241.15 216.328C241.414 216.616 241.732 216.838 242.104 216.994C242.488 217.138 243.022 217.306 243.706 217.498C244.534 217.726 245.2 217.954 245.704 218.182C246.208 218.398 246.64 218.74 247 219.208C247.36 219.664 247.54 220.288 247.54 221.08C247.54 221.692 247.378 222.268 247.054 222.808C246.73 223.348 246.25 223.786 245.614 224.122C244.978 224.458 244.228 224.626 243.364 224.626ZM255.458 224.5L251.588 220.144V224.5H249.95V211.18H251.588V219.01L255.386 214.636H257.672L253.028 219.55L257.69 224.5H255.458ZM260.852 211.18V224.5H259.214V211.18H260.852ZM272.644 219.19C272.644 219.502 272.626 219.832 272.59 220.18H264.706C264.766 221.152 265.096 221.914 265.696 222.466C266.308 223.006 267.046 223.276 267.91 223.276C268.618 223.276 269.206 223.114 269.674 222.79C270.154 222.454 270.49 222.01 270.682 221.458H272.446C272.182 222.406 271.654 223.18 270.862 223.78C270.07 224.368 269.086 224.662 267.91 224.662C266.974 224.662 266.134 224.452 265.39 224.032C264.658 223.612 264.082 223.018 263.662 222.25C263.242 221.47 263.032 220.57 263.032 219.55C263.032 218.53 263.236 217.636 263.644 216.868C264.052 216.1 264.622 215.512 265.354 215.104C266.098 214.684 266.95 214.474 267.91 214.474C268.846 214.474 269.674 214.678 270.394 215.086C271.114 215.494 271.666 216.058 272.05 216.778C272.446 217.486 272.644 218.29 272.644 219.19ZM270.952 218.848C270.952 218.224 270.814 217.69 270.538 217.246C270.262 216.79 269.884 216.448 269.404 216.22C268.936 215.98 268.414 215.86 267.838 215.86C267.01 215.86 266.302 216.124 265.714 216.652C265.138 217.18 264.808 217.912 264.724 218.848H270.952ZM276.444 216.454C276.768 215.89 277.248 215.422 277.884 215.05C278.532 214.666 279.282 214.474 280.134 214.474C281.01 214.474 281.802 214.684 282.51 215.104C283.23 215.524 283.794 216.118 284.202 216.886C284.61 217.642 284.814 218.524 284.814 219.532C284.814 220.528 284.61 221.416 284.202 222.196C283.794 222.976 283.23 223.582 282.51 224.014C281.802 224.446 281.01 224.662 280.134 224.662C279.294 224.662 278.55 224.476 277.902 224.104C277.266 223.72 276.78 223.246 276.444 222.682V229.18H274.806V214.636H276.444V216.454ZM283.14 219.532C283.14 218.788 282.99 218.14 282.69 217.588C282.39 217.036 281.982 216.616 281.466 216.328C280.962 216.04 280.404 215.896 279.792 215.896C279.192 215.896 278.634 216.046 278.118 216.346C277.614 216.634 277.206 217.06 276.894 217.624C276.594 218.176 276.444 218.818 276.444 219.55C276.444 220.294 276.594 220.948 276.894 221.512C277.206 222.064 277.614 222.49 278.118 222.79C278.634 223.078 279.192 223.222 279.792 223.222C280.404 223.222 280.962 223.078 281.466 222.79C281.982 222.49 282.39 222.064 282.69 221.512C282.99 220.948 283.14 220.288 283.14 219.532Z" fill="#EFF0F3"/>
<rect x="213.5" y="191.5" width="97" height="54" stroke="#5B5F67"/>
<rect x="213.5" y="290.5" width="102" height="54" fill="#010104"/>
<path d="M245.074 323.626C243.91 323.626 242.848 323.356 241.888 322.816C240.928 322.264 240.166 321.502 239.602 320.53C239.05 319.546 238.774 318.442 238.774 317.218C238.774 315.994 239.05 314.896 239.602 313.924C240.166 312.94 240.928 312.178 241.888 311.638C242.848 311.086 243.91 310.81 245.074 310.81C246.25 310.81 247.318 311.086 248.278 311.638C249.238 312.178 249.994 312.934 250.546 313.906C251.098 314.878 251.374 315.982 251.374 317.218C251.374 318.454 251.098 319.558 250.546 320.53C249.994 321.502 249.238 322.264 248.278 322.816C247.318 323.356 246.25 323.626 245.074 323.626ZM245.074 322.204C245.95 322.204 246.736 322 247.432 321.592C248.14 321.184 248.692 320.602 249.088 319.846C249.496 319.09 249.7 318.214 249.7 317.218C249.7 316.21 249.496 315.334 249.088 314.59C248.692 313.834 248.146 313.252 247.45 312.844C246.754 312.436 245.962 312.232 245.074 312.232C244.186 312.232 243.394 312.436 242.698 312.844C242.002 313.252 241.45 313.834 241.042 314.59C240.646 315.334 240.448 316.21 240.448 317.218C240.448 318.214 240.646 319.09 241.042 319.846C241.45 320.602 242.002 321.184 242.698 321.592C243.406 322 244.198 322.204 245.074 322.204ZM263.141 313.456C264.341 313.456 265.313 313.822 266.057 314.554C266.801 315.274 267.173 316.318 267.173 317.686V323.5H265.553V317.92C265.553 316.936 265.307 316.186 264.815 315.67C264.323 315.142 263.651 314.878 262.799 314.878C261.935 314.878 261.245 315.148 260.729 315.688C260.225 316.228 259.973 317.014 259.973 318.046V323.5H258.335V313.636H259.973V315.04C260.297 314.536 260.735 314.146 261.287 313.87C261.851 313.594 262.469 313.456 263.141 313.456ZM269.237 318.532C269.237 317.524 269.441 316.642 269.849 315.886C270.257 315.118 270.815 314.524 271.523 314.104C272.243 313.684 273.041 313.474 273.917 313.474C274.781 313.474 275.531 313.66 276.167 314.032C276.803 314.404 277.277 314.872 277.589 315.436V313.636H279.245V323.5H277.589V321.664C277.265 322.24 276.779 322.72 276.131 323.104C275.495 323.476 274.751 323.662 273.899 323.662C273.023 323.662 272.231 323.446 271.523 323.014C270.815 322.582 270.257 321.976 269.849 321.196C269.441 320.416 269.237 319.528 269.237 318.532ZM277.589 318.55C277.589 317.806 277.439 317.158 277.139 316.606C276.839 316.054 276.431 315.634 275.915 315.346C275.411 315.046 274.853 314.896 274.241 314.896C273.629 314.896 273.071 315.04 272.567 315.328C272.063 315.616 271.661 316.036 271.361 316.588C271.061 317.14 270.911 317.788 270.911 318.532C270.911 319.288 271.061 319.948 271.361 320.512C271.661 321.064 272.063 321.49 272.567 321.79C273.071 322.078 273.629 322.222 274.241 322.222C274.853 322.222 275.411 322.078 275.915 321.79C276.431 321.49 276.839 321.064 277.139 320.512C277.439 319.948 277.589 319.294 277.589 318.55ZM285.505 323.662C284.749 323.662 284.071 323.536 283.471 323.284C282.871 323.02 282.397 322.66 282.049 322.204C281.701 321.736 281.509 321.202 281.473 320.602H283.165C283.213 321.094 283.441 321.496 283.849 321.808C284.269 322.12 284.815 322.276 285.487 322.276C286.111 322.276 286.603 322.138 286.963 321.862C287.323 321.586 287.503 321.238 287.503 320.818C287.503 320.386 287.311 320.068 286.927 319.864C286.543 319.648 285.949 319.438 285.145 319.234C284.413 319.042 283.813 318.85 283.345 318.658C282.889 318.454 282.493 318.16 282.157 317.776C281.833 317.38 281.671 316.864 281.671 316.228C281.671 315.724 281.821 315.262 282.121 314.842C282.421 314.422 282.847 314.092 283.399 313.852C283.951 313.6 284.581 313.474 285.289 313.474C286.381 313.474 287.263 313.75 287.935 314.302C288.607 314.854 288.967 315.61 289.015 316.57H287.377C287.341 316.054 287.131 315.64 286.747 315.328C286.375 315.016 285.871 314.86 285.235 314.86C284.647 314.86 284.179 314.986 283.831 315.238C283.483 315.49 283.309 315.82 283.309 316.228C283.309 316.552 283.411 316.822 283.615 317.038C283.831 317.242 284.095 317.41 284.407 317.542C284.731 317.662 285.175 317.8 285.739 317.956C286.447 318.148 287.023 318.34 287.467 318.532C287.911 318.712 288.289 318.988 288.601 319.36C288.925 319.732 289.093 320.218 289.105 320.818C289.105 321.358 288.955 321.844 288.655 322.276C288.355 322.708 287.929 323.05 287.377 323.302C286.837 323.542 286.213 323.662 285.505 323.662Z" fill="#EFF0F3"/>
<rect x="213.5" y="290.5" width="102" height="54" stroke="#5B5F67"/>
<rect x="213.5" y="389.5" width="232" height="54" fill="#010104"/>
<path d="M247.774 413.626C247.774 414.67 247.414 415.54 246.694 416.236C245.986 416.92 244.9 417.262 243.436 417.262H241.024V422.5H239.386V409.954H243.436C244.852 409.954 245.926 410.296 246.658 410.98C247.402 411.664 247.774 412.546 247.774 413.626ZM243.436 415.912C244.348 415.912 245.02 415.714 245.452 415.318C245.884 414.922 246.1 414.358 246.1 413.626C246.1 412.078 245.212 411.304 243.436 411.304H241.024V415.912H243.436ZM254.112 422.662C253.188 422.662 252.348 422.452 251.592 422.032C250.848 421.612 250.26 421.018 249.828 420.25C249.408 419.47 249.198 418.57 249.198 417.55C249.198 416.542 249.414 415.654 249.846 414.886C250.29 414.106 250.89 413.512 251.646 413.104C252.402 412.684 253.248 412.474 254.184 412.474C255.12 412.474 255.966 412.684 256.722 413.104C257.478 413.512 258.072 414.1 258.504 414.868C258.948 415.636 259.17 416.53 259.17 417.55C259.17 418.57 258.942 419.47 258.486 420.25C258.042 421.018 257.436 421.612 256.668 422.032C255.9 422.452 255.048 422.662 254.112 422.662ZM254.112 421.222C254.7 421.222 255.252 421.084 255.768 420.808C256.284 420.532 256.698 420.118 257.01 419.566C257.334 419.014 257.496 418.342 257.496 417.55C257.496 416.758 257.34 416.086 257.028 415.534C256.716 414.982 256.308 414.574 255.804 414.31C255.3 414.034 254.754 413.896 254.166 413.896C253.566 413.896 253.014 414.034 252.51 414.31C252.018 414.574 251.622 414.982 251.322 415.534C251.022 416.086 250.872 416.758 250.872 417.55C250.872 418.354 251.016 419.032 251.304 419.584C251.604 420.136 252 420.55 252.492 420.826C252.984 421.09 253.524 421.222 254.112 421.222ZM262.962 409.18V422.5H261.324V409.18H262.962ZM266.599 411.034C266.287 411.034 266.023 410.926 265.807 410.71C265.591 410.494 265.483 410.23 265.483 409.918C265.483 409.606 265.591 409.342 265.807 409.126C266.023 408.91 266.287 408.802 266.599 408.802C266.899 408.802 267.151 408.91 267.355 409.126C267.571 409.342 267.679 409.606 267.679 409.918C267.679 410.23 267.571 410.494 267.355 410.71C267.151 410.926 266.899 411.034 266.599 411.034ZM267.391 412.636V422.5H265.753V412.636H267.391ZM272.181 413.986V419.8C272.181 420.28 272.283 420.622 272.487 420.826C272.691 421.018 273.045 421.114 273.549 421.114H274.755V422.5H273.279C272.367 422.5 271.683 422.29 271.227 421.87C270.771 421.45 270.543 420.76 270.543 419.8V413.986H269.265V412.636H270.543V410.152H272.181V412.636H274.755V413.986H272.181ZM285.236 412.636L279.296 427.144H277.604L279.548 422.392L275.57 412.636H277.388L280.484 420.628L283.544 412.636H285.236ZM292.39 422.5L288.52 418.144V422.5H286.882V409.18H288.52V417.01L292.318 412.636H294.604L289.96 417.55L294.622 422.5H292.39ZM295.534 417.532C295.534 416.524 295.738 415.642 296.146 414.886C296.554 414.118 297.112 413.524 297.82 413.104C298.54 412.684 299.338 412.474 300.214 412.474C301.078 412.474 301.828 412.66 302.464 413.032C303.1 413.404 303.574 413.872 303.886 414.436V412.636H305.542V422.5H303.886V420.664C303.562 421.24 303.076 421.72 302.428 422.104C301.792 422.476 301.048 422.662 300.196 422.662C299.32 422.662 298.528 422.446 297.82 422.014C297.112 421.582 296.554 420.976 296.146 420.196C295.738 419.416 295.534 418.528 295.534 417.532ZM303.886 417.55C303.886 416.806 303.736 416.158 303.436 415.606C303.136 415.054 302.728 414.634 302.212 414.346C301.708 414.046 301.15 413.896 300.538 413.896C299.926 413.896 299.368 414.04 298.864 414.328C298.36 414.616 297.958 415.036 297.658 415.588C297.358 416.14 297.208 416.788 297.208 417.532C297.208 418.288 297.358 418.948 297.658 419.512C297.958 420.064 298.36 420.49 298.864 420.79C299.368 421.078 299.926 421.222 300.538 421.222C301.15 421.222 301.708 421.078 302.212 420.79C302.728 420.49 303.136 420.064 303.436 419.512C303.736 418.948 303.886 418.294 303.886 417.55ZM321.497 413.626C321.497 414.67 321.137 415.54 320.417 416.236C319.709 416.92 318.623 417.262 317.159 417.262H314.747V422.5H313.109V409.954H317.159C318.575 409.954 319.649 410.296 320.381 410.98C321.125 411.664 321.497 412.546 321.497 413.626ZM317.159 415.912C318.071 415.912 318.743 415.714 319.175 415.318C319.607 414.922 319.823 414.358 319.823 413.626C319.823 412.078 318.935 411.304 317.159 411.304H314.747V415.912H317.159ZM325.17 414.238C325.458 413.674 325.866 413.236 326.394 412.924C326.934 412.612 327.588 412.456 328.356 412.456V414.148H327.924C326.088 414.148 325.17 415.144 325.17 417.136V422.5H323.532V412.636H325.17V414.238ZM338.743 412.636L332.803 427.144H331.111L333.055 422.392L329.077 412.636H330.895L333.991 420.628L337.051 412.636H338.743ZM353.53 412.636L350.452 422.5H348.76L346.384 414.67L344.008 422.5H342.316L339.22 412.636H340.894L343.162 420.916L345.61 412.636H347.284L349.678 420.934L351.91 412.636H353.53ZM354.544 417.532C354.544 416.524 354.748 415.642 355.156 414.886C355.564 414.118 356.122 413.524 356.83 413.104C357.55 412.684 358.348 412.474 359.224 412.474C360.088 412.474 360.838 412.66 361.474 413.032C362.11 413.404 362.584 413.872 362.896 414.436V412.636H364.552V422.5H362.896V420.664C362.572 421.24 362.086 421.72 361.438 422.104C360.802 422.476 360.058 422.662 359.206 422.662C358.33 422.662 357.538 422.446 356.83 422.014C356.122 421.582 355.564 420.976 355.156 420.196C354.748 419.416 354.544 418.528 354.544 417.532ZM362.896 417.55C362.896 416.806 362.746 416.158 362.446 415.606C362.146 415.054 361.738 414.634 361.222 414.346C360.718 414.046 360.16 413.896 359.548 413.896C358.936 413.896 358.378 414.04 357.874 414.328C357.37 414.616 356.968 415.036 356.668 415.588C356.368 416.14 356.218 416.788 356.218 417.532C356.218 418.288 356.368 418.948 356.668 419.512C356.968 420.064 357.37 420.49 357.874 420.79C358.378 421.078 358.936 421.222 359.548 421.222C360.16 421.222 360.718 421.078 361.222 420.79C361.738 420.49 362.146 420.064 362.446 419.512C362.746 418.948 362.896 418.294 362.896 417.55ZM369.318 413.986V419.8C369.318 420.28 369.42 420.622 369.624 420.826C369.828 421.018 370.182 421.114 370.686 421.114H371.892V422.5H370.416C369.504 422.5 368.82 422.29 368.364 421.87C367.908 421.45 367.68 420.76 367.68 419.8V413.986H366.402V412.636H367.68V410.152H369.318V412.636H371.892V413.986H369.318ZM378.682 412.456C379.882 412.456 380.854 412.822 381.598 413.554C382.342 414.274 382.714 415.318 382.714 416.686V422.5H381.094V416.92C381.094 415.936 380.848 415.186 380.356 414.67C379.864 414.142 379.192 413.878 378.34 413.878C377.476 413.878 376.786 414.148 376.27 414.688C375.766 415.228 375.514 416.014 375.514 417.046V422.5H373.876V412.636H375.514V414.04C375.838 413.536 376.276 413.146 376.828 412.87C377.392 412.594 378.01 412.456 378.682 412.456ZM389.692 422.662C388.768 422.662 387.928 422.452 387.172 422.032C386.428 421.612 385.84 421.018 385.408 420.25C384.988 419.47 384.778 418.57 384.778 417.55C384.778 416.542 384.994 415.654 385.426 414.886C385.87 414.106 386.47 413.512 387.226 413.104C387.982 412.684 388.828 412.474 389.764 412.474C390.7 412.474 391.546 412.684 392.302 413.104C393.058 413.512 393.652 414.1 394.084 414.868C394.528 415.636 394.75 416.53 394.75 417.55C394.75 418.57 394.522 419.47 394.066 420.25C393.622 421.018 393.016 421.612 392.248 422.032C391.48 422.452 390.628 422.662 389.692 422.662ZM389.692 421.222C390.28 421.222 390.832 421.084 391.348 420.808C391.864 420.532 392.278 420.118 392.59 419.566C392.914 419.014 393.076 418.342 393.076 417.55C393.076 416.758 392.92 416.086 392.608 415.534C392.296 414.982 391.888 414.574 391.384 414.31C390.88 414.034 390.334 413.896 389.746 413.896C389.146 413.896 388.594 414.034 388.09 414.31C387.598 414.574 387.202 414.982 386.902 415.534C386.602 416.086 386.452 416.758 386.452 417.55C386.452 418.354 386.596 419.032 386.884 419.584C387.184 420.136 387.58 420.55 388.072 420.826C388.564 421.09 389.104 421.222 389.692 421.222ZM400.396 422.662C399.64 422.662 398.962 422.536 398.362 422.284C397.762 422.02 397.288 421.66 396.94 421.204C396.592 420.736 396.4 420.202 396.364 419.602H398.056C398.104 420.094 398.332 420.496 398.74 420.808C399.16 421.12 399.706 421.276 400.378 421.276C401.002 421.276 401.494 421.138 401.854 420.862C402.214 420.586 402.394 420.238 402.394 419.818C402.394 419.386 402.202 419.068 401.818 418.864C401.434 418.648 400.84 418.438 400.036 418.234C399.304 418.042 398.704 417.85 398.236 417.658C397.78 417.454 397.384 417.16 397.048 416.776C396.724 416.38 396.562 415.864 396.562 415.228C396.562 414.724 396.712 414.262 397.012 413.842C397.312 413.422 397.738 413.092 398.29 412.852C398.842 412.6 399.472 412.474 400.18 412.474C401.272 412.474 402.154 412.75 402.826 413.302C403.498 413.854 403.858 414.61 403.906 415.57H402.268C402.232 415.054 402.022 414.64 401.638 414.328C401.266 414.016 400.762 413.86 400.126 413.86C399.538 413.86 399.07 413.986 398.722 414.238C398.374 414.49 398.2 414.82 398.2 415.228C398.2 415.552 398.302 415.822 398.506 416.038C398.722 416.242 398.986 416.41 399.298 416.542C399.622 416.662 400.066 416.8 400.63 416.956C401.338 417.148 401.914 417.34 402.358 417.532C402.802 417.712 403.18 417.988 403.492 418.36C403.816 418.732 403.984 419.218 403.996 419.818C403.996 420.358 403.846 420.844 403.546 421.276C403.246 421.708 402.82 422.05 402.268 422.302C401.728 422.542 401.104 422.662 400.396 422.662ZM401.962 409.72L398.128 411.772V410.548L401.962 408.298V409.72ZM405.696 417.55C405.696 416.53 405.9 415.642 406.308 414.886C406.716 414.118 407.28 413.524 408 413.104C408.732 412.684 409.566 412.474 410.502 412.474C411.714 412.474 412.71 412.768 413.49 413.356C414.282 413.944 414.804 414.76 415.056 415.804H413.292C413.124 415.204 412.794 414.73 412.302 414.382C411.822 414.034 411.222 413.86 410.502 413.86C409.566 413.86 408.81 414.184 408.234 414.832C407.658 415.468 407.37 416.374 407.37 417.55C407.37 418.738 407.658 419.656 408.234 420.304C408.81 420.952 409.566 421.276 410.502 421.276C411.222 421.276 411.822 421.108 412.302 420.772C412.782 420.436 413.112 419.956 413.292 419.332H415.056C414.792 420.34 414.264 421.15 413.472 421.762C412.68 422.362 411.69 422.662 410.502 422.662C409.566 422.662 408.732 422.452 408 422.032C407.28 421.612 406.716 421.018 406.308 420.25C405.9 419.482 405.696 418.582 405.696 417.55ZM418.087 411.034C417.775 411.034 417.511 410.926 417.295 410.71C417.079 410.494 416.971 410.23 416.971 409.918C416.971 409.606 417.079 409.342 417.295 409.126C417.511 408.91 417.775 408.802 418.087 408.802C418.387 408.802 418.639 408.91 418.843 409.126C419.059 409.342 419.167 409.606 419.167 409.918C419.167 410.23 419.059 410.494 418.843 410.71C418.639 410.926 418.387 411.034 418.087 411.034ZM418.879 412.636V422.5H417.241V412.636H418.879Z" fill="#EFF0F3"/>
<rect x="213.5" y="389.5" width="232" height="54" stroke="#5B5F67"/>
<path d="M415 119L410 116.113V121.887L415 119ZM348 119.5H410.5V118.5H348V119.5Z" fill="#5B5F67"/>
<rect x="435.5" y="92.5" width="138" height="54" fill="#010104"/>
<path d="M468.478 112.954V114.286H463.024V118.516H467.452V119.848H463.024V125.5H461.386V112.954H468.478ZM474.758 125.662C473.834 125.662 472.994 125.452 472.238 125.032C471.494 124.612 470.906 124.018 470.474 123.25C470.054 122.47 469.844 121.57 469.844 120.55C469.844 119.542 470.06 118.654 470.492 117.886C470.936 117.106 471.536 116.512 472.292 116.104C473.048 115.684 473.894 115.474 474.83 115.474C475.766 115.474 476.612 115.684 477.368 116.104C478.124 116.512 478.718 117.1 479.15 117.868C479.594 118.636 479.816 119.53 479.816 120.55C479.816 121.57 479.588 122.47 479.132 123.25C478.688 124.018 478.082 124.612 477.314 125.032C476.546 125.452 475.694 125.662 474.758 125.662ZM474.758 124.222C475.346 124.222 475.898 124.084 476.414 123.808C476.93 123.532 477.344 123.118 477.656 122.566C477.98 122.014 478.142 121.342 478.142 120.55C478.142 119.758 477.986 119.086 477.674 118.534C477.362 117.982 476.954 117.574 476.45 117.31C475.946 117.034 475.4 116.896 474.812 116.896C474.212 116.896 473.66 117.034 473.156 117.31C472.664 117.574 472.268 117.982 471.968 118.534C471.668 119.086 471.518 119.758 471.518 120.55C471.518 121.354 471.662 122.032 471.95 122.584C472.25 123.136 472.646 123.55 473.138 123.826C473.63 124.09 474.17 124.222 474.758 124.222ZM483.608 117.238C483.896 116.674 484.304 116.236 484.832 115.924C485.372 115.612 486.026 115.456 486.794 115.456V117.148H486.362C484.526 117.148 483.608 118.144 483.608 120.136V125.5H481.97V115.636H483.608V117.238ZM500.547 115.456C501.315 115.456 501.999 115.618 502.599 115.942C503.199 116.254 503.673 116.728 504.021 117.364C504.369 118 504.543 118.774 504.543 119.686V125.5H502.923V119.92C502.923 118.936 502.677 118.186 502.185 117.67C501.705 117.142 501.051 116.878 500.223 116.878C499.371 116.878 498.693 117.154 498.189 117.706C497.685 118.246 497.433 119.032 497.433 120.064V125.5H495.813V119.92C495.813 118.936 495.567 118.186 495.075 117.67C494.595 117.142 493.941 116.878 493.113 116.878C492.261 116.878 491.583 117.154 491.079 117.706C490.575 118.246 490.323 119.032 490.323 120.064V125.5H488.685V115.636H490.323V117.058C490.647 116.542 491.079 116.146 491.619 115.87C492.171 115.594 492.777 115.456 493.437 115.456C494.265 115.456 494.997 115.642 495.633 116.014C496.269 116.386 496.743 116.932 497.055 117.652C497.331 116.956 497.787 116.416 498.423 116.032C499.059 115.648 499.767 115.456 500.547 115.456ZM515.978 115.636V125.5H514.34V124.042C514.028 124.546 513.59 124.942 513.026 125.23C512.474 125.506 511.862 125.644 511.19 125.644C510.422 125.644 509.732 125.488 509.12 125.176C508.508 124.852 508.022 124.372 507.662 123.736C507.314 123.1 507.14 122.326 507.14 121.414V115.636H508.76V121.198C508.76 122.17 509.006 122.92 509.498 123.448C509.99 123.964 510.662 124.222 511.514 124.222C512.39 124.222 513.08 123.952 513.584 123.412C514.088 122.872 514.34 122.086 514.34 121.054V115.636H515.978ZM520.381 112.18V125.5H518.743V112.18H520.381ZM522.561 120.532C522.561 119.524 522.765 118.642 523.173 117.886C523.581 117.118 524.139 116.524 524.847 116.104C525.567 115.684 526.365 115.474 527.241 115.474C528.105 115.474 528.855 115.66 529.491 116.032C530.127 116.404 530.601 116.872 530.913 117.436V115.636H532.569V125.5H530.913V123.664C530.589 124.24 530.103 124.72 529.455 125.104C528.819 125.476 528.075 125.662 527.223 125.662C526.347 125.662 525.555 125.446 524.847 125.014C524.139 124.582 523.581 123.976 523.173 123.196C522.765 122.416 522.561 121.528 522.561 120.532ZM530.913 120.55C530.913 119.806 530.763 119.158 530.463 118.606C530.163 118.054 529.755 117.634 529.239 117.346C528.735 117.046 528.177 116.896 527.565 116.896C526.953 116.896 526.395 117.04 525.891 117.328C525.387 117.616 524.985 118.036 524.685 118.588C524.385 119.14 524.235 119.788 524.235 120.532C524.235 121.288 524.385 121.948 524.685 122.512C524.985 123.064 525.387 123.49 525.891 123.79C526.395 124.078 526.953 124.222 527.565 124.222C528.177 124.222 528.735 124.078 529.239 123.79C529.755 123.49 530.163 123.064 530.463 122.512C530.763 121.948 530.913 121.294 530.913 120.55ZM536.975 117.238C537.263 116.674 537.671 116.236 538.199 115.924C538.739 115.612 539.393 115.456 540.161 115.456V117.148H539.729C537.893 117.148 536.975 118.144 536.975 120.136V125.5H535.337V115.636H536.975V117.238ZM543.276 124.15H548.118V125.5H541.404V124.15L546.192 116.968H541.44V115.636H548.082V116.968L543.276 124.15Z" fill="#EFF0F3"/>
<rect x="435.5" y="92.5" width="138" height="54" stroke="#5B5F67"/>
<rect x="435.5" y="191.5" width="128" height="54" fill="#010104"/>
<path d="M469.774 215.626C469.774 216.67 469.414 217.54 468.694 218.236C467.986 218.92 466.9 219.262 465.436 219.262H463.024V224.5H461.386V211.954H465.436C466.852 211.954 467.926 212.296 468.658 212.98C469.402 213.664 469.774 214.546 469.774 215.626ZM465.436 217.912C466.348 217.912 467.02 217.714 467.452 217.318C467.884 216.922 468.1 216.358 468.1 215.626C468.1 214.078 467.212 213.304 465.436 213.304H463.024V217.912H465.436ZM473.448 216.238C473.736 215.674 474.144 215.236 474.672 214.924C475.212 214.612 475.866 214.456 476.634 214.456V216.148H476.202C474.366 216.148 473.448 217.144 473.448 219.136V224.5H471.81V214.636H473.448V216.238ZM482.827 224.662C481.903 224.662 481.063 224.452 480.307 224.032C479.563 223.612 478.975 223.018 478.543 222.25C478.123 221.47 477.913 220.57 477.913 219.55C477.913 218.542 478.129 217.654 478.561 216.886C479.005 216.106 479.605 215.512 480.361 215.104C481.117 214.684 481.963 214.474 482.899 214.474C483.835 214.474 484.681 214.684 485.437 215.104C486.193 215.512 486.787 216.1 487.219 216.868C487.663 217.636 487.885 218.53 487.885 219.55C487.885 220.57 487.657 221.47 487.201 222.25C486.757 223.018 486.151 223.612 485.383 224.032C484.615 224.452 483.763 224.662 482.827 224.662ZM482.827 223.222C483.415 223.222 483.967 223.084 484.483 222.808C484.999 222.532 485.413 222.118 485.725 221.566C486.049 221.014 486.211 220.342 486.211 219.55C486.211 218.758 486.055 218.086 485.743 217.534C485.431 216.982 485.023 216.574 484.519 216.31C484.015 216.034 483.469 215.896 482.881 215.896C482.281 215.896 481.729 216.034 481.225 216.31C480.733 216.574 480.337 216.982 480.037 217.534C479.737 218.086 479.587 218.758 479.587 219.55C479.587 220.354 479.731 221.032 480.019 221.584C480.319 222.136 480.715 222.55 481.207 222.826C481.699 223.09 482.239 223.222 482.827 223.222ZM489.426 219.532C489.426 218.524 489.63 217.642 490.038 216.886C490.446 216.118 491.004 215.524 491.712 215.104C492.432 214.684 493.236 214.474 494.124 214.474C494.892 214.474 495.606 214.654 496.266 215.014C496.926 215.362 497.43 215.824 497.778 216.4V211.18H499.434V224.5H497.778V222.646C497.454 223.234 496.974 223.72 496.338 224.104C495.702 224.476 494.958 224.662 494.106 224.662C493.23 224.662 492.432 224.446 491.712 224.014C491.004 223.582 490.446 222.976 490.038 222.196C489.63 221.416 489.426 220.528 489.426 219.532ZM497.778 219.55C497.778 218.806 497.628 218.158 497.328 217.606C497.028 217.054 496.62 216.634 496.104 216.346C495.6 216.046 495.042 215.896 494.43 215.896C493.818 215.896 493.26 216.04 492.756 216.328C492.252 216.616 491.85 217.036 491.55 217.588C491.25 218.14 491.1 218.788 491.1 219.532C491.1 220.288 491.25 220.948 491.55 221.512C491.85 222.064 492.252 222.49 492.756 222.79C493.26 223.078 493.818 223.222 494.43 223.222C495.042 223.222 495.6 223.078 496.104 222.79C496.62 222.49 497.028 222.064 497.328 221.512C497.628 220.948 497.778 220.294 497.778 219.55ZM510.95 214.636V224.5H509.312V223.042C509 223.546 508.562 223.942 507.998 224.23C507.446 224.506 506.834 224.644 506.162 224.644C505.394 224.644 504.704 224.488 504.092 224.176C503.48 223.852 502.994 223.372 502.634 222.736C502.286 222.1 502.112 221.326 502.112 220.414V214.636H503.732V220.198C503.732 221.17 503.978 221.92 504.47 222.448C504.962 222.964 505.634 223.222 506.486 223.222C507.362 223.222 508.052 222.952 508.556 222.412C509.06 221.872 509.312 221.086 509.312 220.054V214.636H510.95ZM519.224 224.5L515.354 220.144V224.5H513.716V211.18H515.354V219.01L519.152 214.636H521.438L516.794 219.55L521.456 224.5H519.224ZM524.978 215.986V221.8C524.978 222.28 525.08 222.622 525.284 222.826C525.488 223.018 525.842 223.114 526.346 223.114H527.552V224.5H526.076C525.164 224.5 524.48 224.29 524.024 223.87C523.568 223.45 523.34 222.76 523.34 221.8V215.986H522.062V214.636H523.34V212.152H524.978V214.636H527.552V215.986H524.978ZM538.032 214.636L532.092 229.144H530.4L532.344 224.392L528.366 214.636H530.184L533.28 222.628L536.34 214.636H538.032Z" fill="#EFF0F3"/>
<rect x="435.5" y="191.5" width="128" height="54" stroke="#5B5F67"/>
<rect x="435.5" y="290.5" width="108" height="54" fill="#010104"/>
<path d="M462.772 322.078H468.892V323.5H460.828V322.204L466.912 312.376H460.9V310.954H468.856V312.25L462.772 322.078ZM480.124 318.19C480.124 318.502 480.106 318.832 480.07 319.18H472.186C472.246 320.152 472.576 320.914 473.176 321.466C473.788 322.006 474.526 322.276 475.39 322.276C476.098 322.276 476.686 322.114 477.154 321.79C477.634 321.454 477.97 321.01 478.162 320.458H479.926C479.662 321.406 479.134 322.18 478.342 322.78C477.55 323.368 476.566 323.662 475.39 323.662C474.454 323.662 473.614 323.452 472.87 323.032C472.138 322.612 471.562 322.018 471.142 321.25C470.722 320.47 470.512 319.57 470.512 318.55C470.512 317.53 470.716 316.636 471.124 315.868C471.532 315.1 472.102 314.512 472.834 314.104C473.578 313.684 474.43 313.474 475.39 313.474C476.326 313.474 477.154 313.678 477.874 314.086C478.594 314.494 479.146 315.058 479.53 315.778C479.926 316.486 480.124 317.29 480.124 318.19ZM478.432 317.848C478.432 317.224 478.294 316.69 478.018 316.246C477.742 315.79 477.364 315.448 476.884 315.22C476.416 314.98 475.894 314.86 475.318 314.86C474.49 314.86 473.782 315.124 473.194 315.652C472.618 316.18 472.288 316.912 472.204 317.848H478.432ZM485.778 323.662C485.022 323.662 484.344 323.536 483.744 323.284C483.144 323.02 482.67 322.66 482.322 322.204C481.974 321.736 481.782 321.202 481.746 320.602H483.438C483.486 321.094 483.714 321.496 484.122 321.808C484.542 322.12 485.088 322.276 485.76 322.276C486.384 322.276 486.876 322.138 487.236 321.862C487.596 321.586 487.776 321.238 487.776 320.818C487.776 320.386 487.584 320.068 487.2 319.864C486.816 319.648 486.222 319.438 485.418 319.234C484.686 319.042 484.086 318.85 483.618 318.658C483.162 318.454 482.766 318.16 482.43 317.776C482.106 317.38 481.944 316.864 481.944 316.228C481.944 315.724 482.094 315.262 482.394 314.842C482.694 314.422 483.12 314.092 483.672 313.852C484.224 313.6 484.854 313.474 485.562 313.474C486.654 313.474 487.536 313.75 488.208 314.302C488.88 314.854 489.24 315.61 489.288 316.57H487.65C487.614 316.054 487.404 315.64 487.02 315.328C486.648 315.016 486.144 314.86 485.508 314.86C484.92 314.86 484.452 314.986 484.104 315.238C483.756 315.49 483.582 315.82 483.582 316.228C483.582 316.552 483.684 316.822 483.888 317.038C484.104 317.242 484.368 317.41 484.68 317.542C485.004 317.662 485.448 317.8 486.012 317.956C486.72 318.148 487.296 318.34 487.74 318.532C488.184 318.712 488.562 318.988 488.874 319.36C489.198 319.732 489.366 320.218 489.378 320.818C489.378 321.358 489.228 321.844 488.928 322.276C488.628 322.708 488.202 323.05 487.65 323.302C487.11 323.542 486.486 323.662 485.778 323.662ZM493.329 315.454C493.653 314.89 494.133 314.422 494.769 314.05C495.417 313.666 496.167 313.474 497.019 313.474C497.895 313.474 498.687 313.684 499.395 314.104C500.115 314.524 500.679 315.118 501.087 315.886C501.495 316.642 501.699 317.524 501.699 318.532C501.699 319.528 501.495 320.416 501.087 321.196C500.679 321.976 500.115 322.582 499.395 323.014C498.687 323.446 497.895 323.662 497.019 323.662C496.179 323.662 495.435 323.476 494.787 323.104C494.151 322.72 493.665 322.246 493.329 321.682V328.18H491.691V313.636H493.329V315.454ZM500.025 318.532C500.025 317.788 499.875 317.14 499.575 316.588C499.275 316.036 498.867 315.616 498.351 315.328C497.847 315.04 497.289 314.896 496.677 314.896C496.077 314.896 495.519 315.046 495.003 315.346C494.499 315.634 494.091 316.06 493.779 316.624C493.479 317.176 493.329 317.818 493.329 318.55C493.329 319.294 493.479 319.948 493.779 320.512C494.091 321.064 494.499 321.49 495.003 321.79C495.519 322.078 496.077 322.222 496.677 322.222C497.289 322.222 497.847 322.078 498.351 321.79C498.867 321.49 499.275 321.064 499.575 320.512C499.875 319.948 500.025 319.288 500.025 318.532ZM508.157 323.662C507.233 323.662 506.393 323.452 505.637 323.032C504.893 322.612 504.305 322.018 503.873 321.25C503.453 320.47 503.243 319.57 503.243 318.55C503.243 317.542 503.459 316.654 503.891 315.886C504.335 315.106 504.935 314.512 505.691 314.104C506.447 313.684 507.293 313.474 508.229 313.474C509.165 313.474 510.011 313.684 510.767 314.104C511.523 314.512 512.117 315.1 512.549 315.868C512.993 316.636 513.215 317.53 513.215 318.55C513.215 319.57 512.987 320.47 512.531 321.25C512.087 322.018 511.481 322.612 510.713 323.032C509.945 323.452 509.093 323.662 508.157 323.662ZM508.157 322.222C508.745 322.222 509.297 322.084 509.813 321.808C510.329 321.532 510.743 321.118 511.055 320.566C511.379 320.014 511.541 319.342 511.541 318.55C511.541 317.758 511.385 317.086 511.073 316.534C510.761 315.982 510.353 315.574 509.849 315.31C509.345 315.034 508.799 314.896 508.211 314.896C507.611 314.896 507.059 315.034 506.555 315.31C506.063 315.574 505.667 315.982 505.367 316.534C505.067 317.086 504.917 317.758 504.917 318.55C504.917 319.354 505.061 320.032 505.349 320.584C505.649 321.136 506.045 321.55 506.537 321.826C507.029 322.09 507.569 322.222 508.157 322.222ZM509.993 310.72L506.159 312.772V311.548L509.993 309.298V310.72ZM518.338 316.3L517.06 316.804V323.5H515.422V317.434L514.144 317.938V316.642L515.422 316.156V310.18H517.06V315.508L518.338 315.022V316.3Z" fill="#EFF0F3"/>
<rect x="435.5" y="290.5" width="108" height="54" stroke="#5B5F67"/>
<path d="M83 419H82.5V419.5H83V419ZM192 419L187 416.113V421.887L192 419ZM82.5 78V419H83.5V78H82.5ZM83 419.5H187.5V418.5H83V419.5Z" fill="#5B5F67"/>
<path d="M189 319L184 316.113V321.887L189 319ZM81.5 319.5H184.5V318.5H81.5V319.5Z" fill="#5B5F67"/>
<path d="M415 319L410 316.113V321.887L415 319ZM329 319.5H410.5V318.5H329V319.5Z" fill="#5B5F67"/>
<path d="M415 221L410 218.113L410 223.887L415 221ZM329 221.5L410.5 221.5L410.5 220.5L329 220.5L329 221.5Z" fill="#5B5F67"/>
<path d="M189 221L184 218.113V223.887L189 221ZM81.5 221.5H184.5V220.5H81.5V221.5Z" fill="#5B5F67"/>
<path d="M189 122L184 119.113V124.887L189 122ZM81.5 122.5H184.5V121.5H81.5V122.5Z" fill="#5B5F67"/>
<defs>
<linearGradient id="paint0_linear_7790_108991" x1="160.444" y1="1.43753e-05" x2="-4.02178" y2="31.0456" gradientUnits="userSpaceOnUse">
<stop stop-color="#0B0F0D"/>
<stop offset="1" stop-color="#12211F"/>
</linearGradient>
<linearGradient id="paint1_linear_7790_108991" x1="160.444" y1="1.43753e-05" x2="-4.02178" y2="31.0456" gradientUnits="userSpaceOnUse">
<stop stop-color="#2DD282"/>
<stop offset="1" stop-color="#90F4E8"/>
</linearGradient>
</defs>
</svg>
