<svg width="32" height="32" viewBox="0 0 32 32" fill="none" xmlns="http://www.w3.org/2000/svg">
<g clip-path="url(#clip0_7733_97272)">
<path d="M14.9521 0.00470506C14.8833 0.0109603 14.6643 0.0328534 14.4673 0.0484914C9.92219 0.458206 5.66491 2.91024 2.96852 6.67899C1.46706 8.77448 0.506745 11.1515 0.143891 13.6692C0.0156403 14.548 0 14.8076 0 15.9992C0 17.1908 0.0156403 17.4504 0.143891 18.3293C1.01349 24.3374 5.28954 29.3853 11.089 31.2556C12.1275 31.5903 13.2223 31.8186 14.4673 31.9562C14.9521 32.0094 17.0479 32.0094 17.5327 31.9562C19.6817 31.7185 21.5022 31.1868 23.2978 30.2704C23.573 30.1297 23.6262 30.0922 23.5887 30.0609C23.5636 30.0421 22.3906 28.469 20.983 26.5674L18.4242 23.1114L15.218 18.3668C13.4538 15.7584 12.0023 13.6254 11.9898 13.6254C11.9773 13.6223 11.9648 15.7303 11.9586 18.3043C11.9492 22.8111 11.946 22.9925 11.8897 23.0989C11.8084 23.2521 11.7458 23.3147 11.6145 23.3835C11.5144 23.4335 11.4268 23.4429 10.9544 23.4429H10.4133L10.2694 23.3522C10.1756 23.2928 10.1067 23.2146 10.0598 23.1239L9.99414 22.9831L10.0004 16.7123L10.0098 10.4384L10.1067 10.3164C10.1568 10.2507 10.2631 10.1663 10.3382 10.1256C10.4665 10.0631 10.5165 10.0568 11.0577 10.0568C11.6958 10.0568 11.8022 10.0818 11.9679 10.2632C12.0149 10.3133 13.7509 12.9279 15.828 16.0774C17.905 19.2269 20.7453 23.5273 22.1404 25.6385L24.6741 29.476L24.8023 29.3916C25.9378 28.6535 27.139 27.6026 28.0899 26.5079C30.1138 24.1841 31.4182 21.3505 31.8561 18.3293C31.9844 17.4504 32 17.1908 32 15.9992C32 14.8076 31.9844 14.548 31.8561 13.6692C30.9865 7.66106 26.7105 2.61312 20.911 0.742818C19.8882 0.411292 18.7996 0.182978 17.5797 0.0453638C17.2794 0.0140879 15.2117 -0.0203157 14.9521 0.00470506ZM21.5022 9.68148C21.6524 9.75655 21.7744 9.90042 21.8182 10.0505C21.8432 10.1319 21.8495 11.8708 21.8432 15.7897L21.8338 21.4131L20.8422 19.8931L19.8475 18.3731V14.2853C19.8475 11.6425 19.86 10.1569 19.8788 10.0849C19.9288 9.9098 20.0383 9.77219 20.1885 9.69087C20.3167 9.62519 20.3636 9.61893 20.8547 9.61893C21.3177 9.61893 21.399 9.62519 21.5022 9.68148Z" fill="#EFF0F3"/>
</g>
<defs>
<clipPath id="clip0_7733_97272">
<rect width="32" height="32" fill="white" transform="translate(0 -0.00390625)"/>
</clipPath>
</defs>
</svg>
