<svg width="32" height="32" viewBox="0 0 32 32" fill="none" xmlns="http://www.w3.org/2000/svg">
<path d="M30.6693 25.3294C30.6693 26.0367 30.3883 26.7149 29.8882 27.215C29.3881 27.7151 28.7098 27.9961 28.0026 27.9961H4.0026C3.29536 27.9961 2.61708 27.7151 2.11699 27.215C1.61689 26.7149 1.33594 26.0367 1.33594 25.3294V10.6628C1.33594 9.95552 1.61689 9.27724 2.11699 8.77714C2.61708 8.27705 3.29536 7.99609 4.0026 7.99609H9.33594L12.0026 3.99609H20.0026L22.6693 7.99609H28.0026C28.7098 7.99609 29.3881 8.27705 29.8882 8.77714C30.3883 9.27724 30.6693 9.95552 30.6693 10.6628V25.3294Z" stroke="#EFF0F3" stroke-width="2" stroke-linecap="round" stroke-linejoin="round"/>
<path d="M16.0026 22.6628C18.9481 22.6628 21.3359 20.2749 21.3359 17.3294C21.3359 14.3839 18.9481 11.9961 16.0026 11.9961C13.0571 11.9961 10.6693 14.3839 10.6693 17.3294C10.6693 20.2749 13.0571 22.6628 16.0026 22.6628Z" stroke="#EFF0F3" stroke-width="2" stroke-linecap="round" stroke-linejoin="round"/>
</svg>
