<svg width="40" height="40" viewBox="0 0 40 40" fill="none" xmlns="http://www.w3.org/2000/svg">
<path d="M20.0026 28.3301H20.0193M15.1526 14.9967C15.5444 13.8829 16.3179 12.9436 17.3359 12.3453C18.3539 11.747 19.5508 11.5283 20.7146 11.7279C21.8784 11.9276 22.934 12.5326 23.6944 13.436C24.4548 14.3393 24.871 15.4826 24.8693 16.6634C24.8693 19.9967 19.8693 21.6634 19.8693 21.6634M36.6693 19.9967C36.6693 29.2015 29.2074 36.6634 20.0026 36.6634C10.7979 36.6634 3.33594 29.2015 3.33594 19.9967C3.33594 10.792 10.7979 3.33008 20.0026 3.33008C29.2074 3.33008 36.6693 10.792 36.6693 19.9967Z" stroke="url(#paint0_linear_7709_154709)" stroke-width="2" stroke-linecap="round" stroke-linejoin="round"/>
<defs>
<linearGradient id="paint0_linear_7709_154709" x1="36.0443" y1="3.33009" x2="1.35354" y2="5.53969" gradientUnits="userSpaceOnUse">
<stop stop-color="#2DD282"/>
<stop offset="1" stop-color="#90F4E8"/>
</linearGradient>
</defs>
</svg>
