<svg width="32" height="33" viewBox="0 0 32 33" fill="none" xmlns="http://www.w3.org/2000/svg">
<path d="M15.9974 22.9648H16.0107M12.1174 12.2982C12.4309 11.4071 13.0496 10.6557 13.864 10.177C14.6784 9.69839 15.6359 9.52343 16.567 9.68313C17.498 9.84282 18.3425 10.3269 18.9508 11.0495C19.5592 11.7722 19.8921 12.6869 19.8907 13.6315C19.8907 16.2982 15.8907 17.6315 15.8907 17.6315M29.3307 16.2982C29.3307 23.662 23.3612 29.6315 15.9974 29.6315C8.6336 29.6315 2.66406 23.662 2.66406 16.2982C2.66406 8.93438 8.6336 2.96484 15.9974 2.96484C23.3612 2.96484 29.3307 8.93438 29.3307 16.2982Z" stroke="url(#paint0_linear_7811_101300)" stroke-width="2" stroke-linecap="round" stroke-linejoin="round"/>
<defs>
<linearGradient id="paint0_linear_7811_101300" x1="28.8307" y1="2.96485" x2="1.07814" y2="4.73253" gradientUnits="userSpaceOnUse">
<stop stop-color="#2DD282"/>
<stop offset="1" stop-color="#90F4E8"/>
</linearGradient>
</defs>
</svg>
