<svg width="32" height="32" viewBox="0 0 32 32" fill="none" xmlns="http://www.w3.org/2000/svg">
<path d="M7.94279 4.4375C9.94506 4.4375 11.5226 5.22628 12.6754 6.80383C13.8283 8.3207 14.4047 10.505 14.4047 13.3567C14.4047 16.0264 13.7979 18.4838 12.5844 20.7287C11.4316 22.9737 9.70236 25.2187 7.39671 27.4637C7.33604 27.5243 7.24503 27.5547 7.12368 27.5547C6.94165 27.5547 6.78996 27.4637 6.66861 27.2816C6.54726 27.0996 6.54726 26.9479 6.66861 26.8266C9.64169 23.7928 11.1282 20.213 11.1282 16.0871C11.1282 14.3882 10.8249 13.1444 10.2181 12.3556C9.67203 13.2657 8.61021 13.7208 7.03266 13.7208C5.69781 13.7208 4.636 13.3264 3.84723 12.5376C3.05845 11.6882 2.66406 10.5657 2.66406 9.17015C2.66406 7.65328 3.11913 6.50045 4.02925 5.71167C5.00005 4.86222 6.30456 4.4375 7.94279 4.4375ZM22.8688 4.4375C24.8711 4.4375 26.4487 5.22628 27.6015 6.80383C28.7543 8.3207 29.3307 10.505 29.3307 13.3567C29.3307 16.0264 28.724 18.4838 27.5105 20.7287C26.3577 22.9737 24.6284 25.2187 22.3228 27.4637C22.2621 27.5243 22.1711 27.5547 22.0497 27.5547C21.8677 27.5547 21.716 27.4637 21.5947 27.2816C21.4733 27.0996 21.4733 26.9479 21.5947 26.8266C24.5677 23.7928 26.0543 20.213 26.0543 16.0871C26.0543 14.3882 25.7509 13.1444 25.1442 12.3556C24.5981 13.2657 23.5363 13.7208 21.9587 13.7208C20.6239 13.7208 19.5621 13.3264 18.7733 12.5376C17.9845 11.6882 17.5901 10.5657 17.5901 9.17015C17.5901 7.65328 18.0452 6.50045 18.9553 5.71167C19.9261 4.86222 21.2306 4.4375 22.8688 4.4375Z" stroke="#EFF0F3" stroke-width="2" stroke-linecap="round" stroke-linejoin="round"/>
</svg>
