<svg width="32" height="33" viewBox="0 0 32 33" fill="none" xmlns="http://www.w3.org/2000/svg">
<path d="M6.79684 4.75391C6.79684 9.08035 9.35483 11.6553 14.4773 13.0133L19.9045 14.3278C24.7519 15.4908 27.7029 18.3792 27.7029 23.0851C27.7405 25.1343 27.1019 27.1365 25.8949 28.7539C25.8949 24.0584 23.5695 21.5217 17.9606 19.9966L12.6317 18.7308C8.36406 17.7141 5.07078 15.3393 5.07078 10.2277C5.05112 8.25336 5.65705 6.32779 6.79684 4.75391Z" fill="#E84031"/>
<path opacity="0.7" d="M22.7814 22.3652C25.1231 23.85 26.1505 25.9283 26.1505 28.9095C24.2116 31.3708 20.8044 32.7535 16.8005 32.7535C10.0607 32.7535 5.34423 29.4646 4.29688 23.7513H10.7683C11.6019 26.3747 13.8076 27.5903 16.7525 27.5903C20.347 27.5903 22.7367 25.6892 22.7847 22.3535" fill="#E84031"/>
<path opacity="0.7" d="M10.0297 11.1539C8.95284 10.5043 8.06795 9.57219 7.47022 8.45397C6.87417 7.33575 6.587 6.07624 6.63875 4.80639C8.52375 2.29082 11.8029 0.753906 15.7999 0.753906C22.7172 0.753906 26.7192 4.45835 27.706 9.67213H21.4332C20.742 7.6166 19.0089 6.01593 15.8517 6.01593C12.4774 6.01593 10.1767 8.00772 10.0431 11.1539" fill="#E84031"/>
</svg>
