<svg width="32" height="32" viewBox="0 0 32 32" fill="none" xmlns="http://www.w3.org/2000/svg">
<path d="M6.79684 3.99609C6.79684 8.32254 9.35483 10.8975 14.4773 12.2555L19.9045 13.57C24.7519 14.733 27.7029 17.6213 27.7029 22.3273C27.7405 24.3765 27.1019 26.3787 25.8949 27.9961C25.8949 23.3006 23.5695 20.7639 17.9606 19.2388L12.6317 17.973C8.36406 16.9563 5.07078 14.5815 5.07078 9.46987C5.05112 7.49555 5.65705 5.56998 6.79684 3.99609Z" fill="#E84031"/>
<path opacity="0.7" d="M22.7814 21.6074C25.1231 23.0922 26.1505 25.1705 26.1505 28.1517C24.2116 30.6129 20.8044 31.9957 16.8005 31.9957C10.0607 31.9957 5.34423 28.7068 4.29688 22.9935H10.7683C11.6019 25.6169 13.8076 26.8325 16.7525 26.8325C20.347 26.8325 22.7367 24.9314 22.7847 21.5957" fill="#E84031"/>
<path opacity="0.7" d="M10.0297 10.3961C8.95284 9.74652 8.06795 8.81438 7.47022 7.69616C6.87417 6.57793 6.587 5.31842 6.63875 4.04858C8.52375 1.533 11.8029 -0.00390625 15.7999 -0.00390625C22.7172 -0.00390625 26.7192 3.70053 27.706 8.91432H21.4332C20.742 6.85878 19.0089 5.25812 15.8517 5.25812C12.4774 5.25812 10.1767 7.24991 10.0431 10.3961" fill="#E84031"/>
</svg>
